<?xml version="1.0" encoding="UTF-8"?>
<!DOCTYPE svg PUBLIC "-//W3C//DTD SVG 1.1//EN" "http://www.w3.org/Graphics/SVG/1.1/DTD/svg11.dtd">
<!-- Creator: CorelDRAW 2020 (64-Bit) -->
<svg xmlns="http://www.w3.org/2000/svg" xml:space="preserve" width="50mm" height="50mm" version="1.1" style="shape-rendering:geometricPrecision; text-rendering:geometricPrecision; image-rendering:optimizeQuality; fill-rule:evenodd; clip-rule:evenodd"
viewBox="0 0 5000 5000"
 xmlns:xlink="http://www.w3.org/1999/xlink"
 xmlns:xodm="http://www.corel.com/coreldraw/odm/2003">
 <defs>
  <style type="text/css">
   <![CDATA[
    .str0 {stroke:#ede4e4;stroke-width:246.94;stroke-miterlimit:22.9256}
    .fil0 {fill:#FEFEFE}
    .fil1 {fill:#ede4e4;fill-rule:nonzero}
   ]]>
  </style>
 </defs>
 <g id="Слой_x0020_1">
  <metadata id="CorelCorpID_0Corel-Layer"/>
  <rect class="str0" x="156.82" y="168.98" width="4674.1" height="4674.1" rx="909.55" ry="934.82" fill-opacity="0"/>
  <path class="fil1" d="M2749.44 1825.78l0 -274.71c0,-133.88 89.27,-165.06 151.92,-165.06 62.6,0 385.39,0 385.39,0l0 -588.66 -530.75 -2.27c-589.16,0 -723.05,439.14 -723.05,720.17l0 310.53 -340.71 0 0 687.03 343.6 0c0,778.71 0,1717.78 0,1717.78l687.05 0c0,0 0,-948.53 0,-1717.78l509.97 0 24.64 -269.79 37.95 -417.24 -546.01 0z"/>
 </g>
</svg>
