
<svg class="show-mobile" width="148" height="34" viewBox="0 0 148 34" fill="none" xmlns="http://www.w3.org/2000/svg"><mask id="mask0_5789_1080" style="mask-type:alpha" maskUnits="userSpaceOnUse" x="0" y="0" width="33" height="34"><circle cx="16.008" cy="17.0002" r="16.008" fill="white"></circle></mask><g mask="url(#mask0_5789_1080)"><rect width="32.016" height="32.016" transform="translate(0 0.992188)" fill="#FC3F1D"></rect><path d="M18.3682 9.95698H16.7481C13.9708 9.95698 12.5822 11.3456 12.5822 13.4286C12.5822 15.743 13.508 16.9002 15.5909 18.2889L17.211 19.4461L12.5822 26.6207H8.87915L13.2765 20.1404C10.7307 18.2889 9.34203 16.6688 9.34203 13.66C9.34203 9.95698 11.8879 7.41113 16.7481 7.41113H21.6084V26.6207H18.3682V9.95698Z" fill="white"></path></g><path d="M39.6062 27.9861V24.2793H48.5281V27.9861H51.4169V21.8763H49.7552V6.51211H39.4017L39.146 13.8235C39.0182 18.0416 38.6859 20.5213 37.8678 21.8763H36.7174V27.9861H39.6062ZM41.8558 14.2325L42.0348 8.91516H46.6619V21.8763H40.7821C41.319 20.6492 41.728 18.4506 41.8558 14.2325ZM57.9859 11.1648C54.637 11.1648 52.3106 13.5423 52.3106 17.8627C52.3106 22.1575 54.637 24.5349 57.9859 24.5349C61.3348 24.5349 63.6612 22.1575 63.6612 17.8371C63.6612 13.5423 61.3348 11.1648 57.9859 11.1648ZM57.9859 22.1319C56.2987 22.1319 55.455 20.8281 55.455 17.8627C55.455 14.8716 56.2987 13.5679 57.9859 13.5679C59.6732 13.5679 60.5168 14.8716 60.5168 17.8371C60.5168 20.8281 59.6732 22.1319 57.9859 22.1319ZM71.2258 24.5349C72.6319 24.5349 73.6289 24.2793 74.3702 23.7424V21.2627C73.6033 21.7996 72.683 22.1319 71.4048 22.1319C69.2318 22.1319 68.3371 20.4447 68.3371 17.786C68.3371 14.9995 69.4363 13.5679 71.4303 13.5679C72.6063 13.5679 73.7567 13.9769 74.3702 14.3604V11.7784C73.7311 11.4205 72.6063 11.1648 71.098 11.1648C67.2122 11.1648 65.1926 13.9513 65.1926 17.8627C65.1926 22.1575 67.1611 24.5349 71.2258 24.5349ZM85.7224 13.8235V11.4205H75.5222V13.8235H79.1012V24.2793H82.1434V13.8235H85.7224ZM96.3617 15.5107C96.3617 12.3919 94.7767 11.2159 91.5556 11.2159C89.536 11.2159 87.9511 11.8551 87.0307 12.3919V14.9228C87.8488 14.3092 89.6383 13.6446 91.1977 13.6446C92.6549 13.6446 93.3196 14.1558 93.3196 15.5363V16.2521H92.8338C88.1811 16.2521 86.1104 17.786 86.1104 20.3935C86.1104 23.0011 87.6954 24.4582 90.0473 24.4582C91.8368 24.4582 92.6038 23.8703 93.1917 23.2567H93.3196C93.3451 23.5891 93.4474 24.0237 93.5496 24.2793H96.5151C96.4128 23.2312 96.3617 22.183 96.3617 21.1349V15.5107ZM93.3196 21.2116C92.9361 21.774 92.2203 22.2342 91.1466 22.2342C89.8684 22.2342 89.2293 21.4672 89.2293 20.3168C89.2293 18.8085 90.2774 18.2717 92.885 18.2717H93.3196V21.2116ZM103.869 24.2793C106.886 24.2793 108.676 23.0011 108.676 20.5469C108.676 18.8597 107.653 17.8882 105.94 17.5815C107.321 17.198 108.19 16.2265 108.19 14.6927C108.19 12.4942 106.733 11.4205 103.921 11.4205H98.8077V24.2793H103.869ZM103.486 13.7212C104.585 13.7212 105.199 14.1814 105.199 15.1528C105.199 16.0476 104.534 16.5844 103.384 16.5844H101.85V13.7212H103.486ZM103.537 18.8085C104.841 18.8085 105.531 19.2687 105.531 20.3424C105.531 21.5184 104.764 21.9785 103.537 21.9785H101.85V18.8085H103.537ZM118.258 24.2793H121.709L116.826 17.3514L121.121 11.4205H118.053L113.758 17.3514V11.4205H110.716V24.2793H113.758V17.9649L118.258 24.2793ZM132.062 15.5107C132.062 12.3919 130.477 11.2159 127.256 11.2159C125.236 11.2159 123.651 11.8551 122.731 12.3919V14.9228C123.549 14.3092 125.338 13.6446 126.898 13.6446C128.355 13.6446 129.02 14.1558 129.02 15.5363V16.2521H128.534C123.881 16.2521 121.811 17.786 121.811 20.3935C121.811 23.0011 123.396 24.4582 125.747 24.4582C127.537 24.4582 128.304 23.8703 128.892 23.2567H129.02C129.045 23.5891 129.148 24.0237 129.25 24.2793H132.215C132.113 23.2312 132.062 22.183 132.062 21.1349V15.5107ZM129.02 21.2116C128.636 21.774 127.92 22.2342 126.847 22.2342C125.569 22.2342 124.929 21.4672 124.929 20.3168C124.929 18.8085 125.978 18.2717 128.585 18.2717H129.02V21.2116Z" fill="black"></path></svg>