<svg width="230" height="48" viewBox="0 0 230 48" fill="none" xmlns="http://www.w3.org/2000/svg">
<path d="M104.424 19.1522H98.9436L98.9022 19.8335C98.3253 30.3338 96.492 31.4061 94.3896 31.4061C93.936 31.4061 93.5455 31.3449 93.2358 31.1998V28.6008C93.4419 28.6838 93.6687 28.7045 93.8541 28.7045C94.8432 28.7045 96.0177 28.0854 96.429 19.7713L96.5739 16.7794H106.998V31.2205H104.424V19.1522V19.1522Z" fill="#215A38"/>
<path d="M117.445 16.5524C122.081 16.5731 125.172 19.3577 125.172 24.0203C125.172 28.3738 122.143 31.4467 117.445 31.4467C112.81 31.4467 109.719 28.6612 109.719 23.9788C109.719 19.6262 112.747 16.5524 117.445 16.5524ZM117.465 29.0749C120.535 29.0749 122.451 27.0329 122.451 23.9995C122.451 21.1735 120.72 18.9459 117.424 18.9251C114.333 18.9459 112.438 20.9879 112.438 23.9995C112.438 26.8256 114.169 29.0541 117.465 29.0749Z" fill="#215A38"/>
<path d="M137.656 19.1522H130.446V31.2196H127.871V16.7785H137.656V19.1522Z" fill="#215A38"/>
<path d="M142.498 27.569L150.369 16.7785H153.17V31.2196H150.596V20.266L142.684 31.2196H139.924V16.7785H142.498V27.569Z" fill="#215A38"/>
<path d="M168.829 29.6308C168.108 30.4978 166.213 31.4467 163.72 31.4467C159.023 31.426 155.891 28.6405 155.891 23.9788C155.891 19.6262 158.981 16.5524 163.761 16.5524C166.027 16.5524 167.696 17.2535 168.541 17.8518V21.4411C167.676 20.1624 165.925 18.9251 163.761 18.9251C160.608 18.9251 158.672 20.9671 158.672 23.9995C158.672 26.8048 160.382 29.0136 163.698 29.0749C166.212 29.0749 167.984 27.9196 168.828 26.4543V29.6308H168.829Z" fill="#215A38"/>
<path d="M182.18 19.1522H177.317V31.2196H174.743V19.1522H169.962V16.7785H182.18V19.1522Z" fill="#215A38"/>
<path d="M186.919 27.569L194.789 16.7785H197.591V31.2196H195.015V20.266L187.104 31.2196H184.344V16.7785H186.919V27.569Z" fill="#215A38"/>
<path d="M203.917 31.2196H201.341V16.7785H203.917V22.8442H206.079L210.715 16.7785H213.846L208.346 23.649L214.733 31.2196H211.436L206.203 24.9692H203.917V31.2196Z" fill="#215A38"/>
<path d="M224.066 16.7794L230 31.2205H227.26L225.88 27.7961H219.266L217.906 31.2205H215.29L221.141 16.7794H224.066V16.7794ZM220.193 25.4233H224.931L222.562 19.5027L220.193 25.4233Z" fill="#215A38"/>
<path d="M69.8067 19.1833L73.0648 16.7785H62.1602V31.2196H73.0648V28.8157H65.2724V25.118H71.9194V22.7142H65.2724V19.1833H69.8067Z" fill="#21A038"/>
<path d="M53.9295 22.4079H50.1425V19.1833H56.1882L59.4463 16.7785H47.0303V31.2196H53.5277C57.1726 31.2196 59.2628 29.5658 59.2628 26.6832C59.2637 23.927 57.3693 22.4079 53.9295 22.4079ZM53.3874 28.8157H50.1425V24.8127H53.3874C55.3628 24.8127 56.2823 25.4827 56.2823 26.8142C56.2832 28.1749 55.3092 28.8157 53.3874 28.8157Z" fill="#21A038"/>
<path d="M81.8995 16.7795H75.9622V31.2206H79.0743V27.1299H81.8995C85.6883 27.1299 88.042 25.135 88.042 21.9472C88.042 18.7593 85.6883 16.7795 81.8995 16.7795ZM81.8327 24.7251H79.0743V19.1833H81.8327C83.8269 19.1833 84.9251 20.1671 84.9251 21.9538C84.9251 23.7413 83.8269 24.7251 81.8327 24.7251Z" fill="#21A038"/>
<path d="M41.6886 28.093C40.8906 28.534 39.9617 28.7667 39.0018 28.7667C36.1964 28.7667 34.1599 26.7615 34.1599 23.9986C34.1599 21.2357 36.1964 19.2304 39.0018 19.2304C40.0633 19.2304 41.0148 19.5291 41.8326 20.1172L44.0649 18.47L43.9171 18.3399C42.6137 17.1931 40.8727 16.5872 38.8813 16.5872C36.7215 16.5872 34.7612 17.3166 33.3618 18.6405C31.954 19.973 31.1794 21.8463 31.1794 23.9175C31.1794 25.9982 31.9521 27.8998 33.3543 29.2727C34.7612 30.6495 36.7168 31.4081 38.8616 31.4081C41.1051 31.4081 43.0635 30.625 44.3914 29.2002C43.3666 28.4445 42.3775 27.7142 42.3775 27.7142L41.6886 28.093Z" fill="#21A038"/>
<path d="M21.4684 16.6626C22.034 17.3948 22.5177 18.1948 22.9045 19.0476L11.985 27.1063L7.42261 24.2426V20.7975L11.985 23.6612L21.4684 16.6626Z" fill="#21A038"/>
<path d="M2.76967 23.9995C2.76967 23.845 2.77343 23.6914 2.78096 23.5387L0.0160344 23.4002C0.00662345 23.599 0.000976562 23.7988 0.000976562 23.9995C0.000976562 27.3127 1.34203 30.3131 3.51125 32.4842L5.47154 30.5213C3.80299 28.8506 2.76967 26.5438 2.76967 23.9995Z" fill="url(#paint0_linear_50_1689)"/>
<path d="M11.9851 14.7714C12.1394 14.7714 12.2928 14.777 12.4452 14.7846L12.5836 12.0151C12.385 12.0057 12.1855 12 11.9851 12C8.67618 12 5.67975 13.3428 3.51147 15.5149L5.47176 17.4777C7.14032 15.806 9.44411 14.7714 11.9851 14.7714Z" fill="url(#paint1_linear_50_1689)"/>
<path d="M11.985 33.2277C11.8307 33.2277 11.6773 33.2239 11.5248 33.2164L11.3865 35.9849C11.585 35.9943 11.7846 36 11.985 36C15.2938 36 18.2902 34.6572 20.4585 32.4851L18.4982 30.5223C16.8297 32.1921 14.5259 33.2277 11.985 33.2277Z" fill="url(#paint2_linear_50_1689)"/>
<path d="M17.1806 16.3818L19.5117 14.6621C17.4545 12.997 14.8364 12 11.9849 12V14.7723C13.9113 14.7714 15.7003 15.3669 17.1806 16.3818Z" fill="url(#paint3_linear_50_1689)"/>
<path d="M23.9687 23.9996C23.9687 23.2655 23.9029 22.5474 23.7768 21.8492L21.1972 23.7527C21.1991 23.8347 21.201 23.9166 21.201 23.9986C21.201 26.7078 20.0284 29.1484 18.165 30.838L20.0256 32.897C22.447 30.7023 23.9687 27.5286 23.9687 23.9996Z" fill="#21A038"/>
<path d="M11.9849 33.2277C9.27923 33.2277 6.8418 32.0535 5.15443 30.1877L3.09814 32.0507C5.29089 34.4763 8.46048 36 11.9849 36V33.2277Z" fill="url(#paint4_linear_50_1689)"/>
<path d="M5.80465 17.1602L3.94411 15.1012C1.52174 17.2968 0 20.4705 0 23.9995H2.76869C2.76963 21.2894 3.94129 18.8498 5.80465 17.1602Z" fill="url(#paint5_linear_50_1689)"/>
<defs>
<linearGradient id="paint0_linear_50_1689" x1="4.07109" y1="32.1376" x2="1.03905" y2="23.3847" gradientUnits="userSpaceOnUse">
<stop offset="0.1444" stop-color="#F2E913"/>
<stop offset="0.3037" stop-color="#E7E518"/>
<stop offset="0.5823" stop-color="#CADB26"/>
<stop offset="0.891" stop-color="#A3CD39"/>
</linearGradient>
<linearGradient id="paint1_linear_50_1689" x1="4.30183" y1="16.005" x2="12.0955" y2="13.0389" gradientUnits="userSpaceOnUse">
<stop offset="0.0592" stop-color="#0FA8E0"/>
<stop offset="0.5385" stop-color="#0099F9"/>
<stop offset="0.9234" stop-color="#0291EB"/>
</linearGradient>
<linearGradient id="paint2_linear_50_1689" x1="11.2038" y1="34.3268" x2="20.0152" y2="32.338" gradientUnits="userSpaceOnUse">
<stop offset="0.1226" stop-color="#A3CD39"/>
<stop offset="0.2846" stop-color="#86C339"/>
<stop offset="0.8693" stop-color="#21A038"/>
</linearGradient>
<linearGradient id="paint3_linear_50_1689" x1="11.4056" y1="12.9286" x2="18.94" y2="15.2503" gradientUnits="userSpaceOnUse">
<stop offset="0.0566" stop-color="#0291EB"/>
<stop offset="0.79" stop-color="#0C8ACB"/>
</linearGradient>
<linearGradient id="paint4_linear_50_1689" x1="3.79262" y1="31.7128" x2="11.9946" y2="34.7734" gradientUnits="userSpaceOnUse">
<stop offset="0.1324" stop-color="#F2E913"/>
<stop offset="0.2977" stop-color="#EBE716"/>
<stop offset="0.5306" stop-color="#D9E01F"/>
<stop offset="0.8023" stop-color="#BBD62D"/>
<stop offset="0.9829" stop-color="#A3CD39"/>
</linearGradient>
<linearGradient id="paint5_linear_50_1689" x1="1.03191" y1="24.3354" x2="4.33068" y2="15.7652" gradientUnits="userSpaceOnUse">
<stop offset="0.0698" stop-color="#A3CD39"/>
<stop offset="0.2599" stop-color="#81C55F"/>
<stop offset="0.9216" stop-color="#0FA8E0"/>
</linearGradient>
</defs>
</svg>