<?xml version="1.0" encoding="UTF-8"?>
<!DOCTYPE svg PUBLIC "-//W3C//DTD SVG 1.1//EN" "http://www.w3.org/Graphics/SVG/1.1/DTD/svg11.dtd">
<!-- Creator: CorelDRAW 2017 -->
<svg xmlns="http://www.w3.org/2000/svg" xml:space="preserve" width="38mm" height="10mm" version="1.1" style="shape-rendering:geometricPrecision; text-rendering:geometricPrecision; image-rendering:optimizeQuality; fill-rule:evenodd; clip-rule:evenodd"
viewBox="0 0 3800 1000"
 xmlns:xlink="http://www.w3.org/1999/xlink">
 <defs>
  <style type="text/css">
   <![CDATA[
    .fil1 {fill:#ff1493;fill-rule:nonzero}
    .fil0 {fill:#ff1493;fill-rule:nonzero}
   ]]>
  </style>
 </defs>
 <g id="Слой_x0020_1">
  <metadata id="CorelCorpID_0Corel-Layer"/>
  <path class="fil0" d="M223.87 57.74c-15.8,0 -31.33,4.52 -46.57,13.55 -15.24,9.03 -28.78,24.7 -40.64,46.99 -11.85,22.3 -21.45,52.21 -28.78,89.75 -7.34,37.53 -11.01,84.81 -11.01,141.82 0,57 3.67,104.28 11.01,141.81 7.33,37.54 17.21,67.45 29.63,89.75 12.42,22.3 26.81,37.96 43.18,46.99 16.37,9.03 33.59,13.55 51.65,13.55 14.67,0 29.63,-3.95 44.87,-11.86 15.24,-7.9 29.21,-18.91 41.91,-33.02 12.7,-14.11 23.43,-30.76 32.17,-49.95 8.75,-19.19 14.26,-39.79 16.51,-61.81l12.7 0c-2.25,25.4 -7.9,48.69 -16.93,69.85 -9.03,21.17 -20.46,39.51 -34.29,55.04 -13.83,15.52 -29.77,27.51 -47.84,35.98 -18.06,8.47 -37.25,12.7 -57.57,12.7 -26.53,0 -52.21,-6.35 -77.05,-19.05 -24.83,-12.7 -46.99,-31.89 -66.46,-57.57 -19.47,-25.69 -35,-57.86 -46.57,-96.52 -11.57,-38.67 -17.35,-83.97 -17.35,-135.89 0,-51.93 5.78,-97.23 17.35,-135.9 11.57,-38.66 26.81,-70.83 45.72,-96.52 18.91,-25.68 40.22,-44.87 63.93,-57.57 23.7,-12.7 47.69,-19.05 71.96,-19.05 13.55,0 25.83,2.26 36.83,6.77 11.01,4.52 20.47,9.6 28.37,15.24 9.03,6.21 16.93,13.27 23.7,21.17 4.52,-8.47 10.59,-16.51 18.21,-24.13 7.62,-7.62 15.66,-12.56 24.13,-14.82l12.7 0c-1.13,8.47 -1.98,16.94 -2.54,25.4 -0.57,7.91 -0.99,16.23 -1.27,24.98 -0.28,8.75 -0.43,17.36 -0.43,25.82 0,9.6 0.15,19.05 0.43,28.37 0.28,9.31 0.7,17.92 1.27,25.82 0.56,9.03 1.41,17.78 2.54,26.25l-12.7 0c-12.98,-46.85 -30.34,-82.55 -52.07,-107.11 -21.73,-24.55 -45.3,-36.83 -70.7,-36.83zm588.43 292.11c0,51.92 -5.78,97.22 -17.36,135.89 -11.57,38.66 -26.81,70.83 -45.72,96.52 -18.9,25.68 -40.21,44.87 -63.92,57.57 -23.71,12.7 -47.69,19.05 -71.97,19.05 -24.27,0 -48.26,-6.35 -71.96,-19.05 -23.71,-12.7 -45.02,-31.89 -63.93,-57.57 -18.91,-25.69 -34.15,-57.86 -45.72,-96.52 -11.57,-38.67 -17.35,-83.97 -17.35,-135.89 0,-51.93 5.78,-97.23 17.35,-135.9 11.57,-38.66 26.81,-70.83 45.72,-96.52 18.91,-25.68 40.22,-44.87 63.93,-57.57 23.7,-12.7 47.69,-19.05 71.96,-19.05 24.28,0 48.26,6.35 71.97,19.05 23.71,12.7 45.02,31.89 63.92,57.57 18.91,25.69 34.15,57.86 45.72,96.52 11.58,38.67 17.36,83.97 17.36,135.9zm-80.43 0c0,-58.14 -3.53,-106.26 -10.59,-144.36 -7.05,-38.1 -16.36,-68.44 -27.94,-91.02 -11.57,-22.58 -24.41,-38.38 -38.52,-47.41 -14.11,-9.03 -27.94,-13.55 -41.49,-13.55 -13.54,0 -27.37,4.52 -41.48,13.55 -14.11,9.03 -26.95,24.83 -38.53,47.41 -11.57,22.58 -20.88,52.92 -27.94,91.02 -7.05,38.1 -10.58,86.22 -10.58,144.36 0,58.13 3.53,106.25 10.58,144.35 7.06,38.1 16.37,68.44 27.94,91.02 11.58,22.58 24.42,38.38 38.53,47.41 14.11,9.03 27.94,13.55 41.48,13.55 13.55,0 27.38,-4.52 41.49,-13.55 14.11,-9.03 26.95,-24.83 38.52,-47.41 11.58,-22.58 20.89,-52.92 27.94,-91.02 7.06,-38.1 10.59,-86.22 10.59,-144.35zm355.6 -292.11c-15.8,0 -31.33,4.52 -46.57,13.55 -15.24,9.03 -28.78,24.7 -40.64,46.99 -11.85,22.3 -21.45,52.21 -28.78,89.75 -7.34,37.53 -11.01,84.81 -11.01,141.82 0,57 3.67,104.28 11.01,141.81 7.33,37.54 17.21,67.45 29.63,89.75 12.42,22.3 26.81,37.96 43.18,46.99 16.37,9.03 33.59,13.55 51.65,13.55 14.67,0 29.63,-3.95 44.87,-11.86 15.24,-7.9 29.21,-18.91 41.91,-33.02 12.7,-14.11 23.43,-30.76 32.17,-49.95 8.75,-19.19 14.26,-39.79 16.51,-61.81l12.7 0c-2.25,25.4 -7.9,48.69 -16.93,69.85 -9.03,21.17 -20.46,39.51 -34.29,55.04 -13.83,15.52 -29.77,27.51 -47.84,35.98 -18.06,8.47 -37.25,12.7 -57.57,12.7 -26.53,0 -52.21,-6.35 -77.05,-19.05 -24.83,-12.7 -46.99,-31.89 -66.46,-57.57 -19.47,-25.69 -35,-57.86 -46.57,-96.52 -11.57,-38.67 -17.35,-83.97 -17.35,-135.89 0,-51.93 5.78,-97.23 17.35,-135.9 11.57,-38.66 26.81,-70.83 45.72,-96.52 18.91,-25.68 40.22,-44.87 63.93,-57.57 23.7,-12.7 47.69,-19.05 71.96,-19.05 13.55,0 25.83,2.26 36.83,6.77 11.01,4.52 20.47,9.6 28.37,15.24 9.03,6.21 16.93,13.27 23.7,21.17 4.52,-8.47 10.59,-16.51 18.21,-24.13 7.62,-7.62 15.66,-12.56 24.13,-14.82l12.7 0c-1.13,8.47 -1.98,16.94 -2.54,25.4 -0.57,7.91 -0.99,16.23 -1.27,24.98 -0.28,8.75 -0.43,17.36 -0.43,25.82 0,9.6 0.15,19.05 0.43,28.37 0.28,9.31 0.7,17.92 1.27,25.82 0.56,9.03 1.41,17.78 2.54,26.25l-12.7 0c-12.98,-46.85 -30.34,-82.55 -52.07,-107.11 -21.73,-24.55 -45.3,-36.83 -70.7,-36.83zm588.43 292.11c0,51.92 -5.78,97.22 -17.36,135.89 -11.57,38.66 -26.81,70.83 -45.72,96.52 -18.9,25.68 -40.21,44.87 -63.92,57.57 -23.71,12.7 -47.69,19.05 -71.97,19.05 -24.27,0 -48.26,-6.35 -71.96,-19.05 -23.71,-12.7 -45.02,-31.89 -63.93,-57.57 -18.91,-25.69 -34.15,-57.86 -45.72,-96.52 -11.57,-38.67 -17.35,-83.97 -17.35,-135.89 0,-51.93 5.78,-97.23 17.35,-135.9 11.57,-38.66 26.81,-70.83 45.72,-96.52 18.91,-25.68 40.22,-44.87 63.93,-57.57 23.7,-12.7 47.69,-19.05 71.96,-19.05 24.28,0 48.26,6.35 71.97,19.05 23.71,12.7 45.02,31.89 63.92,57.57 18.91,25.69 34.15,57.86 45.72,96.52 11.58,38.67 17.36,83.97 17.36,135.9zm-80.43 0c0,-58.14 -3.53,-106.26 -10.59,-144.36 -7.05,-38.1 -16.36,-68.44 -27.94,-91.02 -11.57,-22.58 -24.41,-38.38 -38.52,-47.41 -14.11,-9.03 -27.94,-13.55 -41.49,-13.55 -13.54,0 -27.37,4.52 -41.48,13.55 -14.11,9.03 -26.95,24.83 -38.53,47.41 -11.57,22.58 -20.88,52.92 -27.94,91.02 -7.05,38.1 -10.58,86.22 -10.58,144.36 0,58.13 3.53,106.25 10.58,144.35 7.06,38.1 16.37,68.44 27.94,91.02 11.58,22.58 24.42,38.38 38.53,47.41 14.11,9.03 27.94,13.55 41.48,13.55 13.55,0 27.38,-4.52 41.49,-13.55 14.11,-9.03 26.95,-24.83 38.52,-47.41 11.58,-22.58 20.89,-52.92 27.94,-91.02 7.06,-38.1 10.59,-86.22 10.59,-144.35zm275.17 84.66l0 190.5 50.8 12.7 0 8.47 -173.57 0 0 -8.47 50.8 -12.7 0 -550.33 -50.8 -12.7 0 -8.47 152.4 0c35,0 66.18,4.8 93.56,14.39 27.37,9.6 50.37,22.86 69,39.8 18.63,16.93 32.88,36.97 42.76,60.11 9.88,23.14 14.81,48.54 14.81,76.2 0,27.66 -4.93,53.06 -14.81,76.2 -9.88,23.14 -24.13,43.18 -42.76,60.12 -18.63,16.93 -41.63,30.19 -69,39.79 -27.38,9.59 -58.56,14.39 -93.56,14.39l-29.63 0zm0 -16.93l29.63 0c44.59,0 79.02,-13.55 103.29,-40.64 24.28,-27.09 36.41,-71.4 36.41,-132.93 0,-61.52 -12.13,-105.83 -36.41,-132.93 -24.27,-27.09 -58.7,-40.64 -103.29,-40.64l-29.63 0 0 347.14zm461.43 -364.07c36.13,0 67.46,3.95 93.98,11.85 26.53,7.91 48.55,18.63 66.04,32.18 17.5,13.54 30.48,29.21 38.95,46.99 8.47,17.78 12.7,36.83 12.7,57.15 0,16.37 -2.4,30.9 -7.2,43.6 -4.79,12.7 -11,23.99 -18.62,33.87 -7.62,9.88 -16.51,18.2 -26.67,24.98 -10.16,6.77 -20.32,12.41 -30.48,16.93 -24.27,10.72 -51.65,17.5 -82.13,20.32 24.84,2.82 47.41,8.75 67.73,17.78 17.5,7.9 33.87,19.47 49.11,34.71 15.24,15.24 24.27,35.84 27.09,61.81l16.94 148.17c1.13,10.72 3.67,18.34 7.62,22.86 3.95,4.51 8.46,6.77 13.55,6.77 2.82,0 5.78,-0.99 8.89,-2.96 3.1,-1.98 6.06,-4.38 8.89,-7.2 2.82,-2.82 5.36,-6.49 7.62,-11.01l8.46 8.47c-3.38,7.34 -8.18,13.83 -14.39,19.47 -5.08,4.52 -11.71,8.75 -19.9,12.7 -8.18,3.95 -17.92,5.93 -29.21,5.93 -19.19,0 -34.85,-5.5 -46.99,-16.51 -12.13,-11.01 -19.05,-23.85 -20.74,-38.52l-16.94 -148.17c-2.25,-19.19 -5.92,-35.42 -11,-48.68 -5.08,-13.27 -12,-24.13 -20.75,-32.6 -8.74,-8.47 -19.89,-14.68 -33.44,-18.63 -13.55,-3.95 -29.91,-5.92 -49.11,-5.92l-33.86 0 0 275.16 50.8 12.7 0 8.47 -173.57 0 0 -8.47 50.8 -12.7 0 -550.33 -50.8 -12.7 0 -8.47 156.63 0zm131.24 148.17c0,-42.34 -11.29,-74.79 -33.87,-97.37 -22.58,-22.58 -55.03,-33.87 -97.37,-33.87l-33.86 0 0 262.47 33.86 0c42.34,0 74.79,-11.29 97.37,-33.86 22.58,-22.58 33.87,-55.04 33.87,-97.37zm469.9 427.57c0,-23.71 4.8,-45.72 14.39,-66.04 9.6,-20.32 21.74,-37.82 36.41,-52.5l8.47 0c-1.13,7.34 -1.98,14.96 -2.54,22.86 -0.57,6.78 -0.99,14.11 -1.27,22.02 -0.28,7.9 -0.43,15.52 -0.43,22.86 0,10.72 0.15,20.18 0.43,28.36 0.28,8.18 0.7,15.38 1.27,21.59 0.56,6.77 1.41,12.7 2.54,17.78l-351.37 0 0 -8.47 50.8 -12.7 0 -550.33 -50.8 -12.7 0 -8.47 342.9 0c-1.13,5.08 -1.97,11.01 -2.54,17.78 -0.56,6.21 -0.99,13.41 -1.27,21.59 -0.28,8.19 -0.42,17.64 -0.42,28.36 0,7.91 0.14,15.67 0.42,23.29 0.28,7.62 0.71,14.81 1.27,21.59 0.57,7.9 1.41,15.52 2.54,22.86l-8.47 0c-14.67,-14.68 -26.81,-32.18 -36.4,-52.5 -9.6,-20.32 -14.4,-42.33 -14.4,-66.04l-160.86 0 0 254.01 80.43 0 38.1 -76.2 8.47 0 0 169.33 -8.47 0 -38.1 -76.2 -80.43 0 0 287.87 169.33 0zm190.5 -465.67c0,23.14 6.78,43.04 20.32,59.69 13.55,16.65 30.48,32.03 50.8,46.14 20.32,14.11 42.48,27.94 66.47,41.49 23.99,13.55 46.14,28.93 66.46,46.14 20.32,17.22 37.25,37.4 50.8,60.54 13.55,23.14 20.32,51.36 20.32,84.67 0,22.01 -3.95,42.61 -11.85,61.8 -7.9,19.19 -19.05,35.85 -33.45,49.96 -14.39,14.11 -31.46,25.11 -51.22,33.02 -19.75,7.9 -41.2,11.85 -64.35,11.85 -21.44,0 -39.79,-2.12 -55.03,-6.35 -15.24,-4.23 -27.94,-9.17 -38.1,-14.82 -11.85,-6.21 -21.73,-13.26 -29.63,-21.16 -4.52,8.46 -10.59,16.37 -18.21,23.7 -7.62,7.34 -15.66,12.14 -24.13,14.4l-12.7 0c0.57,-7.91 1.13,-16.37 1.7,-25.4 0.56,-7.34 1.13,-15.53 1.69,-24.56 0.56,-9.03 0.85,-17.78 0.85,-26.24 0,-9.6 -0.29,-19.05 -0.85,-28.37 -0.56,-9.31 -1.13,-17.92 -1.69,-25.82 -0.57,-9.03 -1.13,-17.78 -1.7,-26.25l12.7 0c12.99,46.85 31.75,82.55 56.31,107.11 24.55,24.55 57.99,36.83 100.33,36.83 33.86,0 61.38,-10.87 82.55,-32.6 21.16,-21.73 31.75,-51.79 31.75,-90.17 0,-23.14 -6.78,-43.04 -20.32,-59.69 -13.55,-16.65 -30.48,-32.03 -50.8,-46.14 -20.32,-14.12 -42.48,-27.94 -66.47,-41.49 -23.98,-13.55 -46.14,-28.93 -66.46,-46.14 -20.32,-17.22 -37.25,-37.4 -50.8,-60.54 -13.55,-23.14 -20.32,-51.37 -20.32,-84.67 0,-19.19 3.67,-37.25 11.01,-54.19 7.33,-16.93 17.49,-31.75 30.48,-44.45 12.98,-12.7 28.22,-22.71 45.72,-30.05 17.5,-7.34 36.4,-11.01 56.72,-11.01 16.94,0 31.9,2.26 44.88,6.77 12.98,4.52 23.99,9.32 33.02,14.4 10.16,6.21 19.47,13.26 27.94,21.16 4.51,-8.46 10.58,-16.36 18.2,-23.7 7.62,-7.34 15.66,-12.14 24.13,-14.4l12.7 0c-1.13,8.47 -1.97,16.94 -2.54,25.4 -0.56,7.91 -0.99,16.23 -1.27,24.98 -0.28,8.75 -0.42,17.36 -0.42,25.82 0,9.6 0.14,19.05 0.42,28.37 0.28,9.31 0.71,17.92 1.27,25.82 0.57,9.03 1.41,17.78 2.54,26.25l-12.7 0c-12.98,-46.85 -31.04,-82.55 -54.19,-107.11 -23.14,-24.55 -51.64,-36.83 -85.51,-36.83 -27.66,0 -50.8,9.6 -69.43,28.79 -18.62,19.19 -27.94,44.87 -27.94,77.05zm376.77 0c0,23.14 6.78,43.04 20.32,59.69 13.55,16.65 30.48,32.03 50.8,46.14 20.32,14.11 42.48,27.94 66.47,41.49 23.99,13.55 46.14,28.93 66.46,46.14 20.32,17.22 37.25,37.4 50.8,60.54 13.55,23.14 20.32,51.36 20.32,84.67 0,22.01 -3.95,42.61 -11.85,61.8 -7.9,19.19 -19.05,35.85 -33.45,49.96 -14.39,14.11 -31.46,25.11 -51.22,33.02 -19.75,7.9 -41.2,11.85 -64.35,11.85 -21.44,0 -39.79,-2.12 -55.03,-6.35 -15.24,-4.23 -27.94,-9.17 -38.1,-14.82 -11.85,-6.21 -21.73,-13.26 -29.63,-21.16 -4.52,8.46 -10.59,16.37 -18.21,23.7 -7.62,7.34 -15.66,12.14 -24.13,14.4l-12.7 0c0.57,-7.91 1.13,-16.37 1.7,-25.4 0.56,-7.34 1.13,-15.53 1.69,-24.56 0.56,-9.03 0.85,-17.78 0.85,-26.24 0,-9.6 -0.29,-19.05 -0.85,-28.37 -0.56,-9.31 -1.13,-17.92 -1.69,-25.82 -0.57,-9.03 -1.13,-17.78 -1.7,-26.25l12.7 0c12.99,46.85 31.75,82.55 56.31,107.11 24.55,24.55 57.99,36.83 100.33,36.83 33.86,0 61.38,-10.87 82.55,-32.6 21.16,-21.73 31.75,-51.79 31.75,-90.17 0,-23.14 -6.78,-43.04 -20.32,-59.69 -13.55,-16.65 -30.48,-32.03 -50.8,-46.14 -20.32,-14.12 -42.48,-27.94 -66.47,-41.49 -23.98,-13.55 -46.14,-28.93 -66.46,-46.14 -20.32,-17.22 -37.25,-37.4 -50.8,-60.54 -13.55,-23.14 -20.32,-51.37 -20.32,-84.67 0,-19.19 3.67,-37.25 11.01,-54.19 7.33,-16.93 17.49,-31.75 30.48,-44.45 12.98,-12.7 28.22,-22.71 45.72,-30.05 17.5,-7.34 36.4,-11.01 56.72,-11.01 16.94,0 31.9,2.26 44.88,6.77 12.98,4.52 23.99,9.32 33.02,14.4 10.16,6.21 19.47,13.26 27.94,21.16 4.51,-8.46 10.58,-16.36 18.2,-23.7 7.62,-7.34 15.66,-12.14 24.13,-14.4l12.7 0c-1.13,8.47 -1.97,16.94 -2.54,25.4 -0.56,7.91 -0.99,16.23 -1.27,24.98 -0.28,8.75 -0.42,17.36 -0.42,25.82 0,9.6 0.14,19.05 0.42,28.37 0.28,9.31 0.71,17.92 1.27,25.82 0.57,9.03 1.41,17.78 2.54,26.25l-12.7 0c-12.98,-46.85 -31.04,-82.55 -54.19,-107.11 -23.14,-24.55 -51.64,-36.83 -85.51,-36.83 -27.66,0 -50.8,9.6 -69.43,28.79 -18.62,19.19 -27.94,44.87 -27.94,77.05z"/>
  <path class="fil1" d="M203.58 788.21c8.18,0 16.93,0.28 27.65,0.28 28.51,0.28 32.18,3.1 33.31,14.39 0.28,2.82 0.28,3.11 0.28,3.95 0,2.26 0.56,3.39 1.97,3.39 0.85,0 1.98,-0.85 1.98,-3.39 0,-2.26 0.56,-20.88 0.56,-28.78 0,-1.13 -0.56,-2.54 -1.69,-2.54 -0.85,0 -1.69,0.28 -5.36,1.12 -3.95,0.85 -12.42,1.42 -20.32,1.42l-92.57 0c-0.28,0 -8.18,-0.29 -18.06,-1.42 -5.08,-0.56 -10.44,-3.1 -12.42,-3.1 -0.85,0 -1.69,1.13 -2.54,4.52 -1.69,7.62 -5.93,26.24 -5.64,27.94 0,1.41 0.28,2.54 1.41,2.54 1.13,0 1.69,-0.29 2.54,-2.26 0.56,-1.41 1.69,-4.8 4.23,-8.75 3.95,-5.93 7.9,-8.75 25.97,-9.03 11.28,-0.28 26.24,-0.28 35.55,-0.28l0 100.75c0,21.16 0,41.48 -1.12,51.64 -1.13,9.6 -1.98,12.99 -7.34,13.83 -2.26,0.29 -3.95,0.29 -6.21,0.29 -2.26,0 -3.1,1.12 -3.1,1.97 0,1.41 1.12,1.98 4.23,1.98 7.34,0 23.99,-0.85 25.12,-0.85 1.12,0 17.78,0.85 32.17,0.85 2.82,0 3.67,-0.85 3.67,-2.26 0,-0.85 -1.13,-1.69 -3.39,-1.69 -2.26,0 -7.62,-0.29 -11.01,-1.13 -7.05,-1.7 -7.62,-5.65 -8.46,-12.42 -1.13,-10.44 -1.41,-30.48 -1.41,-52.21l0 -100.75zm322.57 17.78c0,-20.04 2.54,-23.15 9.03,-24.28 2.26,-0.28 3.39,-0.28 6.49,-0.56 2.83,-0.28 3.39,-1.13 3.39,-2.26 0,-1.13 -1.41,-1.69 -4.52,-1.69 -7.05,0 -16.65,0.85 -25.68,0.85 -3.95,0 -20.88,-0.85 -28.5,-0.85 -3.11,0 -5.36,0.28 -5.36,1.97 0,0.85 0.56,1.7 2.54,1.98 1.97,0.28 5.08,0.28 8.18,0.56 8.19,0.85 11.01,2.54 11.29,28.79 0.56,46.29 0,101.32 0,140.26 0,9.32 0.85,11.01 3.39,11.01 1.41,0 3.95,-0.85 9.59,-6.21 8.75,-9.03 112.89,-132.92 126.15,-148.73 -0.56,39.8 -0.28,78.74 -1.12,116.84 -0.29,17.78 -1.13,28.51 -8.75,30.2 -1.98,0.56 -4.8,0.85 -6.78,1.13 -3.67,0.28 -3.95,0.84 -3.95,1.97 0,1.13 0.57,1.7 3.95,1.7 8.75,0 16.94,-0.85 23.15,-0.85 3.95,0 27.65,0.85 36.68,0.85 2.83,0 3.95,-0.29 3.95,-1.7 0,-0.84 -0.28,-1.69 -3.38,-2.25 -3.95,-0.29 -9.31,-0.85 -10.44,-1.13 -8.19,-1.13 -10.16,-6.21 -10.45,-25.4 -0.56,-44.88 -0.84,-87.49 -1.12,-132.65 0,-19.75 -1.13,-22.01 -3.96,-22.01 -3.1,0 -7.33,4.23 -16.65,15.24 -21.45,24.27 -83.82,98.78 -117.68,138.85l0.56 -121.63zm475.82 -17.22c36.13,0 48.54,0 52.5,0.28 0.56,0 1.41,0.57 1.41,1.7l0 97.08c0,22.86 -0.29,41.77 -1.13,51.93 -0.57,10.72 -4.52,13.26 -8.47,14.11 -2.26,0.56 -3.1,0.56 -4.8,0.85 -3.67,0.28 -3.67,1.41 -3.67,2.25 0,0.85 0.29,1.7 3.96,1.7 8.18,0 22.57,-0.85 25.11,-0.85 1.98,0 20.89,0.85 33.3,0.85 1.98,0 3.11,-0.85 3.11,-1.7 0,-1.13 -0.57,-1.97 -3.39,-2.25 -2.82,-0.29 -6.21,-0.29 -9.87,-1.13 -7.06,-1.13 -9.32,-5.37 -10.16,-14.4 -0.85,-9.87 -0.85,-27.09 -0.85,-50.23l0 -42.33c0,-37.26 0.28,-43.75 0.56,-51.37 0.57,-10.72 3.11,-12.13 9.88,-13.26 2.26,-0.29 3.11,-0.29 4.52,-0.57 2.54,-0.28 2.82,-1.69 2.82,-2.54 0,-0.56 -0.28,-1.69 -3.67,-1.69 -5.93,0 -25.68,0.85 -26.81,0.85l-125.87 0c-3.67,0 -18.91,-0.85 -28.79,-0.85 -2.82,0 -3.95,0.85 -3.95,1.69 0,1.41 0.85,1.98 3.11,2.26 2.25,0.28 4.79,0.28 7.33,0.56 7.06,1.42 10.45,4.52 11.01,13.55 0.56,7.62 0.56,13.55 0.56,51.08l0 42.62c0,23.14 -0.28,38.66 -1.12,48.54 -0.29,10.16 -2.83,15.52 -8.47,16.37 -2.82,0.56 -3.11,0.56 -5.36,0.85 -2.83,0.56 -2.83,1.69 -2.83,2.25 0,1.41 1.98,1.7 4.52,1.7 7.62,0 22.01,-0.85 23.99,-0.85 1.13,0 22.29,0.85 32.74,0.85 3.66,0 4.79,-0.85 4.79,-1.7 0,-1.13 -0.84,-1.97 -3.95,-2.25 -2.26,-0.29 -6.77,-0.57 -10.44,-1.13 -7.34,-1.13 -9.31,-6.78 -9.88,-14.4 -0.56,-10.16 -0.84,-25.68 -0.84,-48.82l0 -96.24c0,-4.51 1.13,-4.8 4.51,-5.08 3.39,-0.28 9.31,-0.28 44.59,-0.28zm413.74 173c60.11,0 99.9,-44.03 99.9,-97.93 0,-56.73 -42.61,-90.03 -98.49,-90.03 -69.71,0 -98.78,56.16 -98.78,93.7 0,42.9 28.22,94.26 97.37,94.26zm7.05 -9.59c-47.41,0 -78.17,-36.69 -78.17,-92.01 0,-53.34 31.61,-77.61 70.84,-77.61 38.66,0 73.66,31.61 73.66,88.34 0,71.68 -47.42,81.28 -66.33,81.28zm356.17 -161.72c0,-1.97 0.56,-2.54 2.54,-2.54 12.41,0 23.7,0.29 35.84,0.57 9.31,0.28 11.57,1.97 14.96,3.95 3.66,3.1 5.36,6.77 5.64,14.39 0,1.98 0.56,2.54 1.98,2.54 1.12,0 1.97,-1.97 1.97,-4.51 0,-7.34 0.28,-12.99 1.41,-20.04 0.57,-2.82 1.13,-6.21 1.41,-7.06 0.29,-1.13 0,-2.25 -0.84,-2.25 -0.57,0 -1.7,0.28 -2.26,0.56 -3.67,1.41 -7.34,1.41 -12.98,1.69 -5.93,0.29 -57.58,0.29 -61.81,0.29 -9.31,0 -18.63,-0.85 -28.79,-0.85 -2.82,0 -4.23,0.28 -4.23,1.97 0,1.13 1.41,1.7 3.67,1.98 2.26,0 5.93,0.28 7.34,0.56 8.18,1.98 9.88,5.65 10.44,13.55 0.56,7.62 0.56,14.39 0.56,51.37l0 42.33c0,22.58 -0.28,39.23 -1.12,49.67 -0.57,10.16 -2.26,13.55 -7.62,15.24 -1.7,0.56 -3.11,0.56 -5.93,0.85 -2.26,0.28 -3.11,0.84 -3.11,1.69 0,1.69 1.13,2.26 3.96,2.26 5.92,0 17.49,-0.57 22.86,-0.85l1.97 0c1.13,0 18.63,0.85 33.3,0.85 2.82,0 3.39,-0.85 3.39,-1.98 0,-1.13 -0.85,-1.69 -3.11,-1.97 -2.82,-0.29 -6.49,-0.29 -9.87,-0.85 -8.47,-0.85 -10.44,-4.52 -11.01,-17.5 -0.56,-11.29 -0.56,-28.5 -0.56,-47.41l0 -98.5zm301.41 98.5c0,21.16 0,41.48 -1.41,51.64 -0.85,6.78 -2.26,12.42 -7.34,13.27 -2.26,0.56 -5.36,1.13 -7.34,1.13 -1.41,0 -1.98,0.56 -1.98,1.41 0,1.69 1.42,2.26 3.96,2.26 7.9,0 24.55,-0.85 24.83,-0.85 1.41,0 17.22,0.85 31.89,0.85 2.82,0 3.95,-0.85 3.95,-2.26 0,-0.85 -0.56,-1.41 -1.69,-1.41 -2.26,0 -7.9,-0.57 -11.29,-1.13 -7.62,-0.85 -9.03,-6.49 -9.88,-13.27 -1.13,-10.16 -1.13,-30.48 -1.13,-52.21l0 -97.64c0,-1.98 0.29,-3.96 1.7,-4.52 1.69,-0.85 5.92,-1.41 9.59,-1.41 5.08,0 21.17,-1.41 35,13.26 12.98,13.55 12.13,30.48 12.13,34.15 0,24.84 -18.62,40.08 -40.92,40.08 -5.36,0 -7.05,0 -7.05,2.26 0,1.12 1.41,1.69 2.54,1.69 1.41,0.28 4.23,0.28 5.36,0.28 35.28,0 61.24,-22.86 61.24,-54.19 0,-15.8 -7.06,-26.81 -12.42,-31.6 -3.95,-3.39 -15.24,-13.55 -46.28,-13.55 -11.57,0 -25.97,0.85 -31.89,0.85 -1.7,0 -17.22,-0.85 -29.35,-0.85 -2.54,0 -3.95,0.56 -3.95,2.26 0,0.84 1.12,1.41 1.69,1.41 2.26,0 6.77,0.28 8.75,0.56 7.9,1.7 10.16,6.21 10.72,13.55 0.57,7.62 0.57,12.7 0.57,51.65l0 42.33zm396.8 0.84c1.12,0 1.69,0.57 2.25,1.42l22.3 56.72c1.69,4.24 0,5.65 -1.13,6.21 -1.13,0.28 -1.98,1.13 -1.98,1.98 0,1.41 1.7,1.69 7.06,1.97 18.91,0.57 40.08,0.57 42.9,0.57 3.1,0 4.23,-0.57 4.23,-1.98 0,-1.41 -1.41,-1.97 -3.39,-1.97 -1.97,0 -5.92,0 -9.59,-1.42 -3.95,-1.41 -12.14,-5.08 -21.45,-27.37 -14.96,-35.28 -53.34,-133.77 -57.29,-143.09 -3.11,-7.9 -4.23,-9.03 -5.65,-9.03 -1.97,0 -2.82,1.41 -5.92,9.6l-56.45 148.73c-4.79,11.85 -9.59,21.16 -21.73,22.29 -1.69,0.29 -4.23,0.29 -5.64,0.29 -2.26,0 -3.39,0.84 -3.39,1.97 0,1.41 1.41,1.98 4.52,1.98 11.85,0 24.27,-0.85 27.09,-0.85 3.11,0 16.09,0.85 22.3,0.85 1.97,0 4.23,-0.57 4.23,-1.98 0,-1.13 -0.85,-1.97 -3.39,-1.97 -0.84,0 -1.13,0 -1.97,0 -6.21,0 -9.32,-2.26 -9.32,-7.34 0,-4.52 1.98,-12.14 4.8,-20.04l12.42 -35.28c0.56,-1.41 1.41,-2.26 2.82,-2.26l51.37 0zm-48.55 -9.87c-0.56,0 -1.12,-0.57 -0.56,-1.7l21.17 -62.37c1.41,-3.95 1.69,-3.95 3.1,0l22.3 62.37c0.28,0.85 0.28,1.7 -0.85,1.7l-45.16 0zm416.84 -75.07c0,-1.41 0.28,-1.41 0.56,-1.41 36.98,2.54 55.6,25.11 55.6,64.06 0,36.97 -19.75,62.09 -55.88,63.78 -0.28,0 -0.28,-0.28 -0.28,-0.56l0 -125.87zm-22.01 125.87c0,0.28 -0.29,0.56 -0.85,0.28 -37.82,-3.95 -57.57,-32.46 -57.57,-72.81 0,-28.23 14.11,-52.21 57.01,-55.04 0.84,0 1.41,0 1.41,0.57l0 127zm10.72 34.71c3.39,0 17.78,0.85 29.92,0.85 3.67,0 3.95,-1.13 3.95,-1.98 0,-0.85 -0.57,-1.69 -3.11,-1.97 -2.82,-0.29 -4.23,0 -9.31,-0.57 -8.47,-0.85 -9.88,-4.51 -9.88,-21.17 0,-0.28 0,-0.56 0.28,-0.56 49.39,-3.39 79.87,-28.79 79.87,-76.76 0,-38.95 -25.68,-65.48 -80.15,-68.3 -0.28,0 -0.28,-0.28 -0.28,-0.57 0.28,-16.65 0.56,-19.47 7.62,-20.6 2.54,-0.28 4.8,-0.28 5.93,-0.56 2.25,-0.28 3.38,-0.85 3.38,-1.98 0,-1.13 -0.84,-1.69 -4.23,-1.69 -6.49,0 -22.3,0.56 -23.99,0.56 -1.97,0 -18.63,-0.56 -25.96,-0.56 -2.83,0 -3.95,0.56 -3.95,1.69 0,0.85 0.56,1.7 2.54,1.98 2.54,0.28 3.66,0.28 7.62,0.84 7.62,1.13 8.74,3.67 8.74,20.04 0,0.57 0,0.85 -0.28,0.85 -60.67,2.26 -82.41,33.87 -82.41,68.86 0,38.66 23.15,72.53 81.57,76.48 0.56,0 0.84,0.28 0.84,0.57 0,17.78 -2.26,20.6 -7.62,21.16 -2.26,0.29 -5.08,0.29 -6.49,0.29 -2.26,0 -3.39,0.84 -3.39,1.69 0,1.41 0.85,2.26 4.24,2.26 7.05,0 20.88,-0.85 24.55,-0.85zm349.67 -159.45c0,-20.04 2.54,-23.15 9.03,-24.28 2.26,-0.28 3.39,-0.28 6.49,-0.56 2.83,-0.28 3.39,-1.13 3.39,-2.26 0,-1.13 -1.41,-1.69 -4.52,-1.69 -7.05,0 -16.65,0.85 -25.68,0.85 -3.95,0 -20.88,-0.85 -28.5,-0.85 -3.11,0 -5.36,0.28 -5.36,1.97 0,0.85 0.56,1.7 2.54,1.98 1.97,0.28 5.08,0.28 8.18,0.56 8.19,0.85 11.01,2.54 11.29,28.79 0.56,46.29 0,101.32 0,140.26 0,9.32 0.85,11.01 3.39,11.01 1.41,0 3.95,-0.85 9.59,-6.21 8.75,-9.03 112.89,-132.92 126.15,-148.73 -0.56,39.8 -0.28,78.74 -1.12,116.84 -0.29,17.78 -1.13,28.51 -8.75,30.2 -1.98,0.56 -4.8,0.85 -6.78,1.13 -3.67,0.28 -3.95,0.84 -3.95,1.97 0,1.13 0.57,1.7 3.95,1.7 8.75,0 16.94,-0.85 23.15,-0.85 3.95,0 27.65,0.85 36.68,0.85 2.83,0 3.95,-0.29 3.95,-1.7 0,-0.84 -0.28,-1.69 -3.38,-2.25 -3.95,-0.29 -9.31,-0.85 -10.44,-1.13 -8.19,-1.13 -10.16,-6.21 -10.45,-25.4 -0.56,-44.88 -0.84,-87.49 -1.12,-132.65 0,-19.75 -1.13,-22.01 -3.96,-22.01 -3.1,0 -7.33,4.23 -16.65,15.24 -21.45,24.27 -83.82,98.78 -117.68,138.85l0.56 -121.63zm477.79 61.52c0,0.85 0,2.54 -1.69,3.1 -1.41,0.57 -3.39,0.85 -8.47,0.85 -25.68,0 -47.69,-15.24 -47.69,-42.33 0,-29.07 16.37,-42.9 42.61,-42.9 6.49,0 10.16,0.28 13.83,1.41 1.41,0.57 1.41,1.41 1.41,2.54l0 77.33zm11.01 -89.46c-6.49,0 -14.39,-0.85 -26.25,-0.85 -17.78,0 -33.02,3.67 -42.89,10.16 -13.27,8.18 -23.15,21.73 -23.15,40.64 0,18.63 10.45,37.82 35.84,47.69 -8.74,5.93 -17.77,18.63 -24.83,27.66 -9.31,11.85 -18.34,23.14 -26.81,33.3 -11.29,13.27 -18.35,16.94 -29.35,17.78 -3.67,0.29 -4.8,0.29 -8.19,0.29 -3.67,0 -4.23,0.84 -4.23,1.41 0,1.69 1.41,2.25 4.8,2.25l12.7 0.29c23.99,0.56 31.61,-2.83 40.64,-10.45 6.77,-5.92 13.26,-12.98 25.12,-30.76 6.2,-8.46 19.75,-27.37 24.27,-32.45 2.25,-2.54 3.38,-3.67 5.36,-4.52 0.84,-0.56 2.82,-0.56 3.95,-0.56 3.67,0.28 10.16,0.56 20.32,0.56 1.13,0 1.69,0.28 1.69,1.7l0 7.61c0,20.32 0.28,40.64 -1.41,50.8 -0.85,6.78 -2.54,12.7 -7.34,13.55 -2.25,0.57 -4.51,0.57 -5.92,0.57 -2.26,0 -3.39,0.84 -3.39,1.97 0,1.41 1.69,1.98 4.23,1.98 7.91,0 23.71,-0.85 24.84,-0.85 1.41,0 17.78,0.85 32.17,0.85 2.82,0 3.67,-0.85 3.67,-1.98 0,-1.13 -1.41,-1.97 -3.39,-1.97 -1.41,0 -6.2,-0.29 -9.87,-1.13 -7.06,-1.7 -9.03,-6.21 -9.88,-12.99 -1.13,-10.16 -1.13,-29.91 -1.13,-51.64l0 -42.33c0,-37.26 0,-43.75 0.56,-51.37 0.29,-7.9 2.26,-12.7 9.04,-13.55 1.97,-0.28 3.66,-0.56 5.36,-0.56 1.97,0 2.82,-1.13 2.82,-1.98 0,-1.41 -1.13,-1.97 -4.23,-1.97 -7.62,0 -22.02,0.85 -25.12,0.85z"/>
 </g>
</svg>
