<?xml version="1.0" encoding="UTF-8"?>
<!DOCTYPE svg PUBLIC "-//W3C//DTD SVG 1.1//EN" "http://www.w3.org/Graphics/SVG/1.1/DTD/svg11.dtd">
<!-- Creator: CorelDRAW 2020 (64-Bit) -->
<svg xmlns="http://www.w3.org/2000/svg" xml:space="preserve" width="100mm" height="100mm" version="1.1" style="shape-rendering:geometricPrecision; text-rendering:geometricPrecision; image-rendering:optimizeQuality; fill-rule:evenodd; clip-rule:evenodd"
viewBox="0 0 10000 10000"
 xmlns:xlink="http://www.w3.org/1999/xlink"
 xmlns:xodm="http://www.corel.com/coreldraw/odm/2003">
 <defs>
  <style type="text/css">
   <![CDATA[
    .fil3 {fill:#263238;fill-rule:nonzero}
    .fil4 {fill:#FFEE58;fill-rule:nonzero}
    .fil0 {fill:url(#id10)}
    .fil1 {fill:url(#id11)}
    .fil2 {fill:url(#id12)}
   ]]>
  </style>
   <clipPath id="id0">
    <path d="M3766.85 1258.6l927.33 -927.2c4.14,-4.07 8.28,-8.15 12.94,-12.22 -4.66,4.07 -8.8,8.15 -12.94,12.22l-927.33 927.2z"/>
   </clipPath>
   <clipPath id="id1">
    <path d="M2832.63 2192.77l947 -946.91 -947 946.91z"/>
   </clipPath>
   <clipPath id="id2">
    <path d="M1892.49 3133.29l953.21 -953.26 -953.21 953.26z"/>
   </clipPath>
   <clipPath id="id3">
    <path d="M951.53 4073.82l953.74 -953.26 -953.74 953.26z"/>
   </clipPath>
   <clipPath id="id4">
    <path d="M1097.14 6083.74l-777.94 -777.77c-82.71,-82.67 -124.07,-191.03 -124.07,-300.19 0,109.16 41.36,217.52 124.07,300.19l777.94 777.77zm-777.94 -1377.35l645.29 -645.33 -645.29 645.33 0 0z"/>
   </clipPath>
   <clipPath id="id5">
    <path d="M2005.68 6992.19l-921.41 -921.35 921.41 921.35z"/>
   </clipPath>
   <clipPath id="id6">
    <path d="M2907.82 7894.51l-915.01 -914.8 915.01 914.8z"/>
   </clipPath>
   <clipPath id="id7">
    <path d="M3816.37 8802.89l-921.41 -921.22 921.41 921.22z"/>
   </clipPath>
   <clipPath id="id8">
    <path d="M4706.8 9692.85c0,0 -0.26,0 -0.26,0 0,0 0.26,0 0.26,0zm-0.78 -0.54c-3.9,-3.8 -7.8,-7.6 -11.7,-11.4l-890.82 -890.56 890.82 890.56c3.9,3.8 7.8,7.6 11.7,11.4z"/>
   </clipPath>
   <clipPath id="id9">
    <path d="M5290.83 9682.47c0.02,0 0.02,0 0.06,0 0,0 -0.04,0 -0.06,0zm0.86 0c0.02,0 0.07,0 0.12,0 -0.05,0 -0.07,0 -0.12,0zm0.9 0c0.02,0 0.06,0 0.11,0 -0.05,0 -0.09,0 -0.11,0zm0.11 -9352.67c-0.03,0 -0.09,0 -0.14,0 0.05,0 0.11,0 0.14,0zm-0.89 0c-0.05,0 -0.07,0 -0.12,0 0.05,0 0.07,0 0.12,0zm-0.9 0c-0.02,0 -0.08,0 -0.11,0 0.03,0 0.09,0 0.11,0zm-0.93 -2.66c0,0 0,0 0,0 0,0 0,0 0,0l0 0z"/>
   </clipPath>
  <linearGradient id="id10" gradientUnits="userSpaceOnUse" x1="2323.78" y1="1279.73" x2="7319.41" y2="8211.13">
   <stop offset="0" style="stop-opacity:1; stop-color:#FFF176"/>
   <stop offset="1" style="stop-opacity:1; stop-color:#FFB300"/>
  </linearGradient>
  <linearGradient id="id11" gradientUnits="userSpaceOnUse" x1="2299.4" y1="1279.73" x2="7311.34" y2="8211.13">
   <stop offset="0" style="stop-opacity:1; stop-color:#FFF782"/>
   <stop offset="1" style="stop-opacity:1; stop-color:#FFD300"/>
  </linearGradient>
  <linearGradient id="id12" gradientUnits="userSpaceOnUse" xlink:href="#id11" x1="2299.39" y1="1279.73" x2="7311.34" y2="8211.13">
  </linearGradient>
 </defs>
 <g id="Слой_x0020_1">
  <metadata id="CorelCorpID_0Corel-Layer"/>
  <path class="fil0" d="M4993.87 9804.99c-103.06,0 -206.07,-37.36 -287.09,-112.06 72.65,66.94 163.02,103.63 255.21,110.54 -22.05,-13.2 -43.03,-28.94 -62.03,-47.94l-4524.43 -4524.42c-124.24,-124.26 -124.24,-325.7 0,-449.96l4524.43 -4524.42c19,-19.01 39.98,-34.74 62.03,-47.94 -92.13,6.91 -182.48,43.54 -255.11,110.45 80.97,-74.64 183.98,-111.97 286.99,-111.97 106.9,0 213.81,40.21 296.11,120.61 -74.11,-72.38 -168.2,-111.89 -264.22,-119.09 22.05,13.2 43.03,28.93 62.03,47.94l4524.43 4524.42c124.26,124.26 124.26,325.7 0,449.96l-4524.43 4524.42c-19,19 -39.98,34.74 -62.03,47.94 96.4,-7.24 190.85,-47 265.07,-119.96 -82.4,80.98 -189.68,121.48 -296.96,121.48zm-287.27 -112.25c-0.19,-0.19 -0.38,-0.34 -0.56,-0.53 0.18,0.19 0.37,0.34 0.56,0.53zm584.28 -9.28c0.27,-0.26 0.53,-0.53 0.81,-0.78 -0.28,0.25 -0.54,0.52 -0.81,0.78zm0.93 -0.91c0.25,-0.25 0.51,-0.49 0.78,-0.76 -0.27,0.27 -0.53,0.51 -0.78,0.76zm0.89 -0.86c0.26,-0.28 0.53,-0.53 0.8,-0.81 -0.27,0.28 -0.54,0.53 -0.8,0.81zm4500.03 -4675.56c0,-108.45 -41.35,-216.87 -124.1,-299.63l-4375.13 -4375.13c-0.27,-0.26 -0.54,-0.53 -0.8,-0.8 0.26,0.27 0.53,0.54 0.8,0.8l4375.13 4375.13c82.75,82.76 124.1,191.18 124.1,299.63zm-4500.17 -4675.66c-0.24,-0.27 -0.5,-0.51 -0.75,-0.75 0.25,0.24 0.51,0.48 0.75,0.75zm-0.87 -0.91c-0.28,-0.23 -0.51,-0.51 -0.78,-0.75 0.24,0.24 0.5,0.52 0.78,0.75zm-0.89 -0.85c-0.26,-0.27 -0.53,-0.53 -0.82,-0.8 0.29,0.27 0.56,0.53 0.82,0.8z"/>
  <g style="clip-path:url(#id0)">
   <image x="2892.86" y="303.17" width="1826.69" height="957.6" xlink:href="Under construction_Images\Under construction_ImgID1.png"/>
  </g>
  <g style="clip-path:url(#id1)">
   <image x="1991.77" y="1244.24" width="1826.69" height="949.6" xlink:href="Under construction_Images\Under construction_ImgID2.png"/>
  </g>
  <g style="clip-path:url(#id2)">
   <image x="1082.69" y="2177.31" width="1826.69" height="957.6" xlink:href="Under construction_Images\Under construction_ImgID3.png"/>
  </g>
  <g style="clip-path:url(#id3)">
   <image x="181.61" y="3118.39" width="1826.69" height="957.6" xlink:href="Under construction_Images\Under construction_ImgID4.png"/>
  </g>
  <g style="clip-path:url(#id4)">
   <image x="181.61" y="4059.46" width="917.61" height="2831.75" xlink:href="Under construction_Images\Under construction_ImgID5.png"/>
  </g>
  <g style="clip-path:url(#id5)">
   <image x="1082.69" y="5933.61" width="925.61" height="1898.67" xlink:href="Under construction_Images\Under construction_ImgID6.png"/>
  </g>
  <g style="clip-path:url(#id6)">
   <image x="1991.77" y="6874.68" width="917.61" height="1890.67" xlink:href="Under construction_Images\Under construction_ImgID7.png"/>
  </g>
  <g style="clip-path:url(#id7)">
   <image x="2892.86" y="7815.75" width="925.61" height="1890.67" xlink:href="Under construction_Images\Under construction_ImgID8.png"/>
  </g>
  <g style="clip-path:url(#id8)">
   <image x="3801.94" y="8748.82" width="917.61" height="957.6" xlink:href="Under construction_Images\Under construction_ImgID9.png"/>
  </g>
  <path class="fil1" d="M4961.99 9803.47c-92.19,-6.91 -182.56,-43.6 -255.21,-110.54 -0.06,-0.08 -0.13,-0.14 -0.18,-0.19 -0.19,-0.19 -0.38,-0.34 -0.56,-0.53 -3.98,-3.67 -7.92,-7.46 -11.79,-11.33l-4375.13 -4375.13c-82.74,-82.74 -124.11,-191.17 -124.11,-299.62 0,-108.45 41.37,-216.87 124.11,-299.63l0 0 4375.13 -4375.13c4.16,-4.13 8.37,-8.18 12.63,-12.13 72.63,-66.91 162.98,-103.54 255.11,-110.45 -22.05,13.2 -43.03,28.93 -62.03,47.94l-4524.43 4524.42c-124.24,124.26 -124.24,325.7 0,449.96l4524.43 4524.42c19,19 39.98,34.74 62.03,47.94z"/>
  <g style="clip-path:url(#id9)">
   <image x="5278.86" y="321.83" width="24.53" height="9371.26" xlink:href="Under construction_Images\Under construction_ImgID10.png"/>
  </g>
  <path class="fil2" d="M5025.76 9803.47c22.05,-13.2 43.03,-28.94 62.03,-47.94l4524.43 -4524.42c124.26,-124.26 124.26,-325.7 0,-449.96l-4524.43 -4524.42c-19,-19.01 -39.98,-34.74 -62.03,-47.94 96.02,7.2 190.11,46.71 264.22,119.09 0,0.03 0,0.03 0,0.03 0.29,0.27 0.56,0.53 0.82,0.8 0.03,0.03 0.08,0.08 0.11,0.1 0.27,0.24 0.5,0.52 0.78,0.75 0.05,0.05 0.07,0.11 0.12,0.16 0.25,0.24 0.51,0.48 0.75,0.75 0.06,0.03 0.11,0.08 0.14,0.1 0.26,0.27 0.53,0.54 0.8,0.8l4375.13 4375.13c82.75,82.76 124.1,191.18 124.1,299.63 0,108.45 -41.35,216.88 -124.1,299.62l-4375.13 4375.13 0 0c-0.27,0.28 -0.54,0.53 -0.8,0.81 -0.05,0.05 -0.08,0.08 -0.11,0.1 -0.27,0.27 -0.53,0.51 -0.78,0.76 -0.05,0.04 -0.1,0.1 -0.12,0.13 -0.28,0.25 -0.54,0.52 -0.81,0.78 -0.03,0.04 -0.03,0.04 -0.05,0.05 -74.22,72.96 -168.67,112.72 -265.07,119.96z"/>
  <path class="fil3" d="M8136.15 3741.76l-2923.49 -2923.51c-120.84,-120.82 -316.73,-120.82 -437.58,0l-2923.48 2923.51 6284.55 0z"/>
  <path class="fil3" d="M4993.87 727.64c-79.18,0 -158.35,30.2 -218.79,90.61l-3952.12 3952.13c-120.83,120.85 -120.83,316.74 0,437.59l3952.12 3952.12c60.44,60.41 139.61,90.62 218.79,90.62 79.18,0 158.36,-30.21 218.79,-90.62l3952.13 -3952.12c120.82,-120.85 120.82,-316.74 0,-437.59l-3952.13 -3952.13c-60.43,-60.41 -139.61,-90.61 -218.79,-90.61zm0 159.96c39.91,0 77.45,15.53 105.68,43.77l3952.13 3952.12c28.23,28.24 43.78,65.77 43.78,105.68 0,39.91 -15.55,77.45 -43.78,105.69l-3952.13 3952.12c-28.23,28.23 -65.77,43.77 -105.68,43.77 -39.9,0 -77.44,-15.54 -105.67,-43.77l-3952.14 -3952.12c-58.26,-58.28 -58.26,-153.09 0,-211.37l3952.14 -3952.12c28.23,-28.24 65.77,-43.77 105.67,-43.77z"/>
  <path class="fil4" d="M4537.68 3098.95c-27.25,3.33 -52.06,-16.04 -55.43,-43.32 -3.33,-27.27 16.05,-52.09 43.33,-55.43 27.27,-3.35 52.09,16.05 55.42,43.33 3.36,27.27 -16.04,52.06 -43.32,55.42zm1023.15 -1222.62c-5.25,-7.03 -15.77,-7.17 -21.19,-0.26l-170.16 217.72 -109.87 -85.84 130.42 -166.83c6.02,-7.73 3.06,-19.2 -6.03,-22.86 -94.72,-37.95 -206.87,-10.82 -272.88,73.62l-10.21 -7.98c-6.08,-4.74 -14.95,-2.82 -18.6,3.97 -41.95,78.25 -39.73,173.1 1.48,253.96l-65.5 124.87c-40.89,77.93 -89.52,152.44 -144.68,221.84l-122.04 -122.05 -37.49 -37.46 -68.17 -68.19 -18.01 18.04 -76.36 -76.34 55.19 -55.19 -28.42 -28.42c10.4,-33.27 36.44,-59.32 69.71,-69.71l28.42 28.41 62.41 -62.4c24.34,-24.34 24.34,-63.83 0,-88.17l-107.33 -107.33c-24.34,-24.33 -63.8,-24.33 -88.13,0l-62.44 62.41 28.42 28.43c-10.4,33.26 -36.44,59.33 -69.72,69.71l-28.42 -28.42 -212.98 212.98 28.43 28.45c-10.4,33.26 -36.45,59.31 -69.72,69.71l-28.42 -28.42 -62.43 62.41c-24.34,24.34 -24.34,63.8 0,88.14l107.35 107.35c24.34,24.34 63.8,24.34 88.14,0l62.4 -62.41 -28.41 -28.42c10.4,-33.27 36.47,-59.34 69.74,-69.74l28.42 28.42 49.18 -49.19 76.35 76.33 -12.04 12.05 68.16 68.2 37.46 37.45 128.52 128.53c-74.16,73.97 -283.07,282.55 -292.11,294.15 -65.42,83.69 -67.15,191.63 -3.86,241.11 63.29,49.45 167.61,21.7 233.03,-61.98 8.42,-10.8 140.76,-230.98 202.45,-333.8l415.7 415.72c31.54,31.51 82.64,31.51 114.18,0l24.5 -24.5c31.54,-31.53 31.54,-82.67 0,-114.18l-444.97 -445c57.02,-76.43 121.54,-147.21 192.27,-210.13l104.88 -93.3c103.25,24.55 212.44,-7.07 278.24,-91.23 75.95,-97.2 70.27,-233.67 -4.86,-334.23z"/>
  <path class="fil3" d="M2926.39 4189.69c-10.09,0 -20.18,4.32 -27.38,11.52 -7.2,7.21 -11.52,17.3 -11.52,27.38l0 569.11c0,57.63 -14.42,102.29 -41.79,135.43 -28.81,33.14 -72.04,48.99 -129.67,48.99 -57.63,0 -100.85,-15.85 -128.23,-48.99 -28.82,-33.14 -43.22,-77.8 -43.22,-135.43l0 -569.11c0,-10.08 -4.32,-20.17 -11.52,-27.38 -7.21,-7.2 -17.29,-11.52 -27.38,-11.52l-188.74 0c-10.09,0 -20.17,4.32 -27.38,11.52 -7.21,7.21 -11.53,17.3 -11.53,27.38l0 574.87c0,66.27 10.09,125.35 31.7,175.77 21.62,50.43 50.43,93.66 89.33,128.24 38.9,34.57 85,60.51 138.31,77.8 53.32,18.73 113.82,27.38 178.66,27.38 64.83,0 123.91,-8.65 177.22,-27.38 53.31,-17.29 100.86,-43.23 139.75,-77.8 38.91,-34.58 67.72,-77.81 89.33,-128.24 21.62,-50.42 31.7,-109.5 31.7,-175.77l0 -574.87c0,-10.08 -4.33,-20.17 -11.53,-27.38 -7.2,-7.2 -17.29,-11.52 -27.37,-11.52l-188.74 0zm1332.71 1008.54c10.08,0 20.17,-4.32 27.37,-11.52 7.21,-7.21 11.53,-17.29 11.53,-27.38l0 -930.74c0,-10.08 -4.32,-20.17 -11.53,-27.38 -7.2,-7.2 -17.29,-11.52 -27.37,-11.52l-188.75 0c-10.09,0 -20.17,4.32 -27.38,11.52 -7.2,7.21 -11.52,17.3 -11.52,27.38l0 486.98 -329.94 -492.74c-2.88,-4.32 -8.64,-11.53 -18.73,-20.17 -10.08,-8.65 -24.49,-12.97 -40.34,-12.97l-149.84 0c-10.09,0 -20.18,4.32 -27.38,11.52 -7.2,7.21 -11.52,17.3 -11.52,27.38l0 930.74c0,10.09 4.32,20.17 11.52,27.38 7.2,7.2 17.29,11.52 27.38,11.52l188.74 0c10.08,0 20.17,-4.32 27.37,-11.52 7.21,-7.21 11.53,-17.29 11.53,-27.38l0 -486.98 329.94 492.75c2.88,4.32 10.08,11.52 20.17,20.17 10.08,8.64 23.05,12.96 38.91,12.96l149.84 0zm387.55 -1008.54c-10.08,0 -20.17,4.32 -27.37,11.52 -7.21,7.21 -11.53,17.3 -11.53,27.38l0 930.74c0,10.09 4.32,20.17 11.53,27.38 7.2,7.2 17.29,11.52 27.37,11.52l389.01 0c66.28,0 126.79,-10.08 180.1,-30.25 53.31,-18.73 100.86,-46.11 139.76,-82.13 38.89,-36.02 69.15,-77.8 90.77,-126.79 21.61,-48.98 34.58,-103.73 37.46,-162.8 1.44,-18.74 1.44,-37.46 1.44,-53.31 0,-15.85 0,-31.7 0,-47.55 0,-15.84 0,-31.69 0,-48.98 0,-15.86 0,-34.58 -1.44,-54.75 -2.88,-59.08 -15.85,-112.38 -37.46,-162.81 -23.06,-48.99 -54.75,-90.77 -93.66,-126.79 -40.34,-36.02 -87.88,-63.4 -142.64,-83.56 -54.75,-18.74 -115.25,-28.82 -181.53,-28.82l-381.81 0zm571.99 452.41c0,17.29 0,34.57 0,50.42 0,17.29 0,34.58 0,51.87 0,18.73 0,37.46 -1.44,57.63 -4.32,110.94 -67.71,165.69 -188.74,165.69l-154.17 0 0 -547.49 146.96 0c125.35,0 190.19,54.75 195.95,165.68 1.44,20.17 1.44,38.9 1.44,56.2zm805.39 325.61l0 -161.37 412.07 0c10.08,0 20.17,-4.32 27.37,-11.53 7.21,-7.2 11.53,-17.29 11.53,-27.37l0 -152.72c0,-10.08 -4.32,-20.17 -11.53,-27.37 -7.2,-7.21 -17.29,-11.54 -27.37,-11.54l-412.07 0 0 -155.59 443.76 0c10.09,0 20.18,-4.33 27.38,-11.54 7.2,-7.2 11.52,-17.29 11.52,-27.37l0 -152.72c0,-10.08 -4.32,-20.17 -11.52,-27.38 -7.2,-7.2 -17.29,-11.52 -27.38,-11.52l-671.4 0c-10.09,0 -20.17,4.32 -27.38,11.52 -7.2,7.21 -11.52,17.3 -11.52,27.38l0 930.74c0,10.09 4.32,20.17 11.52,27.38 7.21,7.2 17.29,11.52 27.38,11.52l682.93 0c10.08,0 20.17,-4.32 27.37,-11.52 7.2,-7.21 11.53,-17.29 11.53,-27.38l0 -152.72c0,-10.09 -4.33,-20.17 -11.53,-27.38 -7.2,-7.2 -17.29,-11.52 -27.37,-11.52l-455.29 0zm806.83 -778.02c-10.09,0 -20.18,4.32 -27.38,11.52 -7.2,7.21 -11.53,17.3 -11.53,27.38l0 930.74c0,10.09 4.33,20.17 11.53,27.38 7.2,7.2 17.29,11.52 27.38,11.52l188.74 0c10.08,0 20.17,-4.32 27.37,-11.52 7.2,-7.21 11.52,-17.29 11.52,-27.38l0 -308.32 132.56 0 159.93 308.32c4.32,8.65 11.52,17.29 20.17,25.94 7.2,8.64 21.61,12.96 40.34,12.96l195.94 0c8.65,0 15.86,-2.87 23.06,-10.08 5.76,-5.76 8.64,-12.97 8.64,-21.61 0,-4.32 -1.44,-10.09 -4.32,-15.85l-178.66 -342.91c54.75,-24.49 96.53,-61.95 126.79,-109.5 30.26,-47.54 44.67,-106.61 44.67,-178.65 0,-56.2 -8.65,-105.18 -27.38,-146.96 -18.73,-41.79 -46.1,-74.92 -80.69,-102.3 -36.01,-27.37 -77.79,-47.54 -128.22,-60.51 -50.43,-12.97 -106.62,-20.17 -170.01,-20.17l-390.45 0zm227.63 223.32l162.82 0c40.34,0 73.48,7.21 100.85,23.05 25.93,15.85 38.9,43.23 38.9,83.57 0,40.34 -12.97,67.72 -38.9,83.56 -27.37,15.85 -60.51,23.05 -100.85,23.05l-162.82 0 0 -213.23z"/>
  <path class="fil3" d="M2367.69 5549.29c3.13,-8.76 7.51,-16.27 13.77,-23.15 6.25,-6.88 14.38,-11.89 23.77,-16.26 9.39,-3.76 21.27,-5.63 35.66,-5.63 14.39,0 25.66,1.87 35.04,5 9.39,3.13 16.89,7.5 22.52,11.89 5.63,5 10.64,10.64 13.77,16.27 3.13,5.63 5,11.26 6.88,16.26 1.88,6.88 4.38,11.27 6.88,13.77 2.5,3.13 7.51,4.37 14.39,4.37l81.96 0c3.76,0 6.89,-1.24 10.02,-4.37 2.5,-2.5 3.75,-5.63 3.75,-9.39 -0.62,-21.27 -5.63,-41.3 -15.64,-60.06 -10.01,-18.77 -23.77,-35.04 -41.29,-48.8 -17.53,-13.77 -38.17,-25.03 -61.32,-33.16 -23.77,-8.14 -49.43,-11.89 -76.96,-11.89 -30.03,0 -56.93,4.37 -80.71,13.13 -23.77,9.39 -43.8,21.28 -60.06,36.92 -16.9,15.64 -29.41,33.16 -38.79,53.8 -9.38,20.66 -14.39,42.55 -15.02,65.7 -0.62,18.15 -1.25,36.92 -1.25,56.31 0,19.4 0.63,38.16 1.25,55.06 1.25,23.15 6.26,44.42 15.64,65.07 8.76,20.65 21.27,38.79 38.17,54.43 16.89,15.64 36.92,27.53 60.69,36.29 23.15,9.38 50.05,13.77 80.08,13.77 27.53,0 53.19,-4.39 76.96,-12.52 23.15,-8.13 43.79,-18.77 61.32,-32.53 17.52,-13.77 31.28,-30.03 41.29,-48.8 10.01,-18.77 15.02,-38.79 15.64,-60.07 0,-3.75 -1.25,-6.88 -3.75,-10.01 -3.13,-2.5 -6.26,-3.75 -10.02,-3.75l-81.96 0c-6.88,0 -11.89,1.25 -14.39,3.75 -2.5,3.13 -5,7.51 -6.88,14.39 -1.88,5.01 -3.75,10.64 -6.88,16.27 -3.13,5.63 -8.14,11.26 -13.77,15.64 -5.63,5.01 -13.13,9.39 -22.52,12.52 -9.38,3.13 -20.65,5 -35.04,5 -14.39,0 -26.27,-1.87 -35.66,-6.26 -9.39,-3.75 -17.52,-8.76 -23.77,-15.64 -6.26,-6.89 -10.64,-14.39 -13.77,-23.15 -3.13,-8.76 -5.01,-18.14 -5.63,-27.53 -0.63,-5.63 -0.63,-13.14 -0.63,-23.14 -0.62,-9.39 -0.62,-19.4 -0.62,-30.04 0,-10.01 0,-20.02 0.62,-29.41 0,-9.38 0,-16.89 0.63,-22.52 0.62,-9.38 2.5,-18.77 5.63,-27.53zm364.14 80.71c0,19.4 0.62,38.16 1.25,55.06 1.26,23.15 6.26,45.05 15.64,65.69 8.76,20.65 21.28,38.79 38.17,54.44 16.27,15.64 36.29,27.53 60.07,36.28 23.14,8.76 50.67,13.15 81.33,13.15 30.66,0 57.56,-4.39 81.34,-13.15 23.77,-8.75 43.8,-20.64 60.69,-36.28 16.27,-15.65 28.78,-33.79 38.16,-54.44 8.76,-20.64 13.77,-42.54 15.02,-65.69 0.62,-16.9 1.25,-35.66 1.25,-55.06 0,-19.39 -0.63,-38.16 -1.25,-56.31 -1.25,-23.15 -6.26,-45.67 -15.02,-66.32 -9.38,-20.65 -21.89,-38.17 -38.16,-53.81 -16.89,-15.01 -36.92,-26.9 -60.69,-36.29 -23.78,-8.76 -50.68,-13.13 -81.34,-13.13 -30.66,0 -58.19,4.37 -81.33,13.13 -23.78,9.39 -43.8,21.28 -60.07,36.29 -16.89,15.64 -29.41,33.16 -38.17,53.81 -9.38,20.65 -14.38,43.17 -15.64,66.32 -0.63,18.15 -1.25,36.92 -1.25,56.31zm254.02 103.86c-12.51,13.77 -31.91,20.65 -57.56,20.65 -25.65,0 -45.04,-6.88 -57.56,-20.65 -13.14,-13.76 -20.02,-31.28 -21.9,-51.93 -0.63,-7.51 -1.25,-15.64 -1.25,-25.03 -0.62,-9.38 -0.62,-18.77 -0.62,-28.15 0,-9.38 0,-18.77 0.62,-28.15 0,-8.76 0.62,-16.9 1.25,-23.78 0.63,-10.64 3.13,-20.02 6.89,-28.78 3.12,-8.76 8.13,-16.26 15.01,-23.15 6.26,-6.26 14.39,-11.26 23.78,-15.01 9.38,-3.76 20.64,-5.63 33.78,-5.63 13.14,0 24.4,1.87 33.79,5.63 9.39,3.75 17.52,8.75 24.4,15.01 6.26,6.89 11.26,14.39 15.02,23.15 3.13,8.76 5.63,18.14 6.25,28.78 0.62,6.88 0.62,15.02 1.25,23.78 0.63,9.38 0.63,18.77 0.63,28.15 0,9.38 0,18.77 -0.63,28.15 -0.63,9.39 -0.63,17.52 -1.25,25.03 -1.88,20.65 -9.38,38.17 -21.9,51.93zm607.52 114.5c4.39,0 8.76,-1.87 11.89,-5 3.13,-3.13 5,-7.52 5,-11.89l0 -404.18c0,-4.39 -1.87,-8.76 -5,-11.89 -3.13,-3.13 -7.5,-5 -11.89,-5l-81.96 0c-4.38,0 -8.76,1.87 -11.89,5 -3.13,3.13 -5,7.5 -5,11.89l0 211.47 -143.28 -213.98c-1.25,-1.88 -3.76,-5 -8.13,-8.75 -4.38,-3.76 -10.64,-5.63 -17.53,-5.63l-65.06 0c-4.38,0 -8.76,1.87 -11.89,5 -3.13,3.13 -5,7.5 -5,11.89l0 404.18c0,4.37 1.87,8.76 5,11.89 3.13,3.13 7.51,5 11.89,5l81.96 0c4.38,0 8.76,-1.87 11.89,-5 3.13,-3.13 5,-7.52 5,-11.89l0 -211.48 143.28 213.98c1.26,1.87 4.38,5 8.76,8.76 4.38,3.76 10.01,5.63 16.9,5.63l65.06 0zm240.87 -433.59c-21.9,7.51 -40.67,17.52 -56.3,30.03 -15.65,12.52 -26.91,26.91 -35.04,43.18 -8.14,16.27 -12.52,33.16 -12.52,51.3 0,35.66 10.01,64.45 30.03,85.72 19.4,21.9 50.69,36.91 93.85,46.29 23.16,5.01 43.17,9.39 60.07,12.52 16.89,3.13 30.65,6.88 41.29,10.01 10.64,3.76 18.77,7.51 24.4,11.89 5.63,4.38 8.14,9.38 8.14,15.64 0,12.51 -7.51,21.27 -21.9,25.65 -15.02,5.01 -33.78,7.51 -55.68,7.51 -12.52,0 -23.16,-1.26 -31.29,-4.38 -8.76,-3.13 -15.64,-6.26 -21.27,-10.64 -5.63,-3.75 -10.63,-7.51 -13.76,-11.26 -3.13,-3.75 -5.63,-6.25 -7.52,-8.13 -3.12,-3.13 -6.88,-5.01 -10.01,-6.88 -3.12,-1.26 -8.13,-1.88 -13.76,-1.88l-81.96 0c-3.13,0 -6.26,1.25 -8.76,3.75 -3.13,3.13 -4.38,6.26 -4.38,10.02 0.62,15.64 5.63,31.27 15.01,46.92 9.39,15.64 23.16,29.4 40.05,41.3 16.89,12.5 36.91,22.51 60.06,30.03 23.15,7.5 49.43,11.26 77.59,11.26 28.15,0 53.8,-3.13 77.58,-9.39 23.15,-6.26 43.8,-15.64 61.31,-27.53 16.89,-11.89 30.66,-25.65 40.05,-42.54 9.38,-16.89 14.39,-35.67 14.39,-56.94 0,-19.4 -2.51,-36.91 -8.14,-51.3 -5.63,-14.39 -14.39,-26.91 -25.65,-37.55 -11.89,-10.63 -26.28,-19.39 -43.17,-26.27 -16.89,-6.89 -36.91,-13.14 -60.07,-17.52 -23.14,-4.38 -41.92,-8.76 -57.56,-11.89 -15.64,-3.12 -27.53,-6.88 -36.91,-10.64 -9.39,-3.12 -16.27,-6.88 -20.02,-11.26 -4.39,-4.38 -6.26,-9.38 -6.26,-15.64 0,-6.26 1.87,-11.26 5.63,-15.64 3.13,-4.38 8.14,-7.51 13.77,-10.01 5.63,-1.88 11.89,-3.75 19.39,-5.01 6.88,-0.62 14.4,-1.24 22.53,-1.24 10.63,0 20.02,1.24 27.53,3.12 7.5,2.51 13.76,5.01 18.77,8.14 5,3.12 8.76,6.25 11.89,9.38 2.5,3.13 4.37,5 5.63,6.26 3.75,3.13 7.5,5.63 11.26,7.5 3.12,1.88 8.13,2.5 13.76,2.5l81.96 0c3.13,0 6.26,-1.24 9.39,-4.37 2.5,-2.5 3.75,-5.63 3.75,-9.39 -0.63,-13.14 -5,-27.53 -14.39,-41.92 -9.38,-14.38 -21.9,-28.15 -38.17,-40.04 -16.26,-11.89 -35.66,-21.9 -57.56,-30.03 -22.52,-7.51 -46.92,-11.26 -73.82,-11.26 -26.91,0 -51.31,3.75 -73.21,10.63zm360.39 -4.37c-4.38,0 -8.76,1.87 -11.89,5 -3.13,3.13 -5,7.5 -5,11.89l0 66.32c0,4.38 1.87,8.75 5,11.88 3.13,3.13 7.51,5.01 11.89,5.01l110.12 0 0 320.97c0,4.37 1.87,8.76 5,11.89 3.13,3.13 7.51,5 11.89,5l81.96 0c4.38,0 8.76,-1.87 11.89,-5 3.13,-3.13 5.01,-7.52 5.01,-11.89l0 -320.97 110.11 0c4.38,0 8.76,-1.88 11.89,-5.01 3.13,-3.13 5.01,-7.5 5.01,-11.88l0 -66.32c0,-4.39 -1.88,-8.76 -5.01,-11.89 -3.13,-3.13 -7.51,-5 -11.89,-5l-335.98 0zm473.01 0c-4.38,0 -8.76,1.87 -11.89,5 -3.13,3.13 -5,7.5 -5,11.89l0 404.18c0,4.37 1.87,8.76 5,11.89 3.13,3.13 7.51,5 11.89,5l81.96 0c4.38,0 8.76,-1.87 11.89,-5 3.13,-3.13 5,-7.52 5,-11.89l0 -133.89 57.56 0 69.45 133.89c1.88,3.75 5.01,7.5 8.76,11.26 3.13,3.76 9.39,5.63 17.53,5.63l85.09 0c3.74,0 6.87,-1.26 10,-4.38 2.5,-2.51 3.76,-5.63 3.76,-9.38 0,-1.88 -0.63,-4.39 -1.88,-6.89l-77.58 -148.91c23.77,-10.64 41.91,-26.9 55.06,-47.54 13.14,-20.65 19.4,-46.31 19.4,-77.59 0,-24.4 -3.76,-45.68 -11.89,-63.82 -8.14,-18.14 -20.03,-32.53 -35.04,-44.42 -15.65,-11.89 -33.79,-20.65 -55.68,-26.28 -21.9,-5.63 -46.3,-8.75 -73.83,-8.75l-169.56 0zm98.85 96.97l70.71 0c17.51,0 31.9,3.13 43.8,10.01 11.26,6.88 16.89,18.77 16.89,36.29 0,17.52 -5.63,29.41 -16.89,36.29 -11.9,6.88 -26.29,10.01 -43.8,10.01l-70.71 0 0 -92.6zm643.17 -96.97c-4.38,0 -8.75,1.87 -11.88,5 -3.13,3.13 -5,7.5 -5,11.89l0 247.13c0,25.03 -6.26,44.43 -18.15,58.82 -12.51,14.39 -31.28,21.27 -56.31,21.27 -25.03,0 -43.8,-6.88 -55.68,-21.27 -12.52,-14.39 -18.77,-33.79 -18.77,-58.82l0 -247.13c0,-4.39 -1.89,-8.76 -5.02,-11.89 -3.12,-3.13 -7.5,-5 -11.88,-5l-81.96 0c-4.38,0 -8.76,1.87 -11.89,5 -3.13,3.13 -5,7.5 -5,11.89l0 249.64c0,28.78 4.38,54.43 13.76,76.32 9.38,21.91 21.9,40.68 38.79,55.69 16.89,15.02 36.91,26.28 60.07,33.79 23.14,8.13 49.42,11.89 77.58,11.89 28.15,0 53.8,-3.76 76.96,-11.89 23.14,-7.51 43.79,-18.77 60.69,-33.79 16.89,-15.01 29.4,-33.78 38.79,-55.69 9.38,-21.89 13.76,-47.54 13.76,-76.32l0 -249.64c0,-4.39 -1.88,-8.76 -5.01,-11.89 -3.12,-3.13 -7.5,-5 -11.88,-5l-81.97 0zm335.35 138.89c3.13,-8.76 7.51,-16.27 13.77,-23.15 6.26,-6.88 14.39,-11.89 23.78,-16.26 9.38,-3.76 21.27,-5.63 35.66,-5.63 14.39,0 25.65,1.87 35.04,5 9.38,3.13 16.89,7.5 22.52,11.89 5.63,5 10.64,10.64 13.77,16.27 3.13,5.63 5,11.26 6.87,16.26 1.89,6.88 4.39,11.27 6.89,13.77 2.5,3.13 7.51,4.37 14.39,4.37l81.96 0c3.75,0 6.88,-1.24 10.01,-4.37 2.5,-2.5 3.76,-5.63 3.76,-9.39 -0.63,-21.27 -5.63,-41.3 -15.65,-60.06 -10.01,-18.77 -23.77,-35.04 -41.29,-48.8 -17.52,-13.77 -38.17,-25.03 -61.31,-33.16 -23.78,-8.14 -49.43,-11.89 -76.96,-11.89 -30.03,0 -56.94,4.37 -80.71,13.13 -23.78,9.39 -43.8,21.28 -60.06,36.92 -16.9,15.64 -29.42,33.16 -38.79,53.8 -9.39,20.66 -14.4,42.55 -15.03,65.7 -0.62,18.15 -1.24,36.92 -1.24,56.31 0,19.4 0.62,38.16 1.24,55.06 1.26,23.15 6.26,44.42 15.65,65.07 8.75,20.65 21.27,38.79 38.17,54.43 16.89,15.64 36.91,27.53 60.69,36.29 23.14,9.38 50.05,13.77 80.08,13.77 27.53,0 53.18,-4.39 76.96,-12.52 23.14,-8.13 43.79,-18.77 61.31,-32.53 17.52,-13.77 31.28,-30.03 41.29,-48.8 10.02,-18.77 15.02,-38.79 15.65,-60.07 0,-3.75 -1.26,-6.88 -3.76,-10.01 -3.13,-2.5 -6.26,-3.75 -10.01,-3.75l-81.96 0c-6.88,0 -11.89,1.25 -14.39,3.75 -2.5,3.13 -5,7.51 -6.89,14.39 -1.87,5.01 -3.74,10.64 -6.87,16.27 -3.13,5.63 -8.14,11.26 -13.77,15.64 -5.63,5.01 -13.14,9.39 -22.52,12.52 -9.39,3.13 -20.65,5 -35.04,5 -14.39,0 -26.28,-1.87 -35.66,-6.26 -9.39,-3.75 -17.52,-8.76 -23.78,-15.64 -6.26,-6.89 -10.64,-14.39 -13.77,-23.15 -3.13,-8.76 -5,-18.14 -5.63,-27.53 -0.62,-5.63 -0.62,-13.14 -0.62,-23.14 -0.62,-9.39 -0.62,-19.4 -0.62,-30.04 0,-10.01 0,-20.02 0.62,-29.41 0,-9.38 0,-16.89 0.62,-22.52 0.63,-9.38 2.5,-18.77 5.63,-27.53zm365.4 -138.89c-4.38,0 -8.76,1.87 -11.89,5 -3.13,3.13 -5,7.5 -5,11.89l0 66.32c0,4.38 1.87,8.75 5,11.88 3.13,3.13 7.51,5.01 11.89,5.01l110.12 0 0 320.97c0,4.37 1.87,8.76 5,11.89 3.13,3.13 7.51,5 11.89,5l81.96 0c4.38,0 8.76,-1.87 11.89,-5 3.12,-3.13 5.01,-7.52 5.01,-11.89l0 -320.97 110.11 0c4.38,0 8.76,-1.88 11.89,-5.01 3.12,-3.13 5.01,-7.5 5.01,-11.88l0 -66.32c0,-4.39 -1.89,-8.76 -5.01,-11.89 -3.13,-3.13 -7.51,-5 -11.89,-5l-335.98 0zm554.95 437.96c4.37,0 8.76,-1.87 11.89,-5 3.12,-3.13 5,-7.52 5,-11.89l0 -404.18c0,-4.39 -1.88,-8.76 -5,-11.89 -3.13,-3.13 -7.52,-5 -11.89,-5l-81.96 0c-4.39,0 -8.76,1.87 -11.89,5 -3.13,3.13 -5,7.5 -5,11.89l0 404.18c0,4.37 1.87,8.76 5,11.89 3.13,3.13 7.5,5 11.89,5l81.96 0zm135.77 -218.36c0,19.4 0.62,38.16 1.25,55.06 1.26,23.15 6.26,45.05 15.64,65.69 8.76,20.65 21.28,38.79 38.17,54.44 16.27,15.64 36.29,27.53 60.07,36.28 23.14,8.76 50.67,13.15 81.33,13.15 30.66,0 57.56,-4.39 81.34,-13.15 23.77,-8.75 43.8,-20.64 60.69,-36.28 16.27,-15.65 28.78,-33.79 38.16,-54.44 8.76,-20.64 13.77,-42.54 15.02,-65.69 0.62,-16.9 1.25,-35.66 1.25,-55.06 0,-19.39 -0.63,-38.16 -1.25,-56.31 -1.25,-23.15 -6.26,-45.67 -15.02,-66.32 -9.38,-20.65 -21.89,-38.17 -38.16,-53.81 -16.89,-15.01 -36.92,-26.9 -60.69,-36.29 -23.78,-8.76 -50.68,-13.13 -81.34,-13.13 -30.66,0 -58.19,4.37 -81.33,13.13 -23.78,9.39 -43.8,21.28 -60.07,36.29 -16.89,15.64 -29.41,33.16 -38.17,53.81 -9.38,20.65 -14.38,43.17 -15.64,66.32 -0.63,18.15 -1.25,36.92 -1.25,56.31zm254.02 103.86c-12.51,13.77 -31.91,20.65 -57.56,20.65 -25.65,0 -45.04,-6.88 -57.56,-20.65 -13.14,-13.76 -20.02,-31.28 -21.9,-51.93 -0.63,-7.51 -1.25,-15.64 -1.25,-25.03 -0.62,-9.38 -0.62,-18.77 -0.62,-28.15 0,-9.38 0,-18.77 0.62,-28.15 0,-8.76 0.62,-16.9 1.25,-23.78 0.63,-10.64 3.13,-20.02 6.89,-28.78 3.12,-8.76 8.13,-16.26 15.01,-23.15 6.26,-6.26 14.39,-11.26 23.78,-15.01 9.38,-3.76 20.64,-5.63 33.78,-5.63 13.14,0 24.4,1.87 33.79,5.63 9.39,3.75 17.52,8.75 24.4,15.01 6.26,6.89 11.26,14.39 15.02,23.15 3.13,8.76 5.63,18.14 6.25,28.78 0.62,6.88 0.62,15.02 1.25,23.78 0.63,9.38 0.63,18.77 0.63,28.15 0,9.38 0,18.77 -0.63,28.15 -0.63,9.39 -0.63,17.52 -1.25,25.03 -1.88,20.65 -9.38,38.17 -21.9,51.93zm607.52 114.5c4.39,0 8.76,-1.87 11.89,-5 3.13,-3.13 5,-7.52 5,-11.89l0 -404.18c0,-4.39 -1.87,-8.76 -5,-11.89 -3.13,-3.13 -7.5,-5 -11.89,-5l-81.96 0c-4.38,0 -8.76,1.87 -11.89,5 -3.13,3.13 -5,7.5 -5,11.89l0 211.47 -143.28 -213.98c-1.25,-1.88 -3.76,-5 -8.13,-8.75 -4.38,-3.76 -10.64,-5.63 -17.53,-5.63l-65.06 0c-4.38,0 -8.76,1.87 -11.89,5 -3.13,3.13 -5,7.5 -5,11.89l0 404.18c0,4.37 1.87,8.76 5,11.89 3.13,3.13 7.51,5 11.89,5l81.96 0c4.38,0 8.76,-1.87 11.89,-5 3.13,-3.13 5,-7.52 5,-11.89l0 -211.48 143.28 213.98c1.26,1.87 4.38,5 8.76,8.76 4.38,3.76 10.01,5.63 16.9,5.63l65.06 0z"/>
  <polygon class="fil3" points="2371.33,6756.34 2628.9,6316.17 3214.74,6317.87 2741.53,7126.54 "/>
  <polygon class="fil3" points="3030.45,7415.45 3671.95,6319.18 4257.78,6320.88 3400.65,7785.66 "/>
  <polygon class="fil3" points="3689.57,8074.58 4714.99,6322.19 5300.85,6323.87 4059.77,8444.79 "/>
  <polygon class="fil3" points="4348.69,8733.7 5758.06,6325.2 6343.9,6326.88 4718.88,9103.9 "/>
  <path class="fil3" d="M5102.41 9231.12l1698.69 -2902.9 585.84 1.68 -925.2 1581.12 -1249.08 1249.07c-32.33,32.33 -70.04,56 -110.25,71.03z"/>
  <path class="fil4" d="M5071.61 1257.33c0,42.92 -34.81,77.74 -77.74,77.74 -42.92,0 -77.73,-34.82 -77.73,-77.74 0,-42.92 34.81,-77.74 77.73,-77.74 42.93,0 77.74,34.82 77.74,77.74z"/>
 </g>
</svg>
