<?xml version="1.0" encoding="UTF-8"?>
<!DOCTYPE svg PUBLIC "-//W3C//DTD SVG 1.1//EN" "http://www.w3.org/Graphics/SVG/1.1/DTD/svg11.dtd">
<!-- Creator: CorelDRAW 2020 (64-Bit) -->
<svg xmlns="http://www.w3.org/2000/svg" xml:space="preserve" width="50mm" height="50mm" version="1.1" style="shape-rendering:geometricPrecision; text-rendering:geometricPrecision; image-rendering:optimizeQuality; fill-rule:evenodd; clip-rule:evenodd"
viewBox="0 0 5000 5000"
 xmlns:xlink="http://www.w3.org/1999/xlink"
 xmlns:xodm="http://www.corel.com/coreldraw/odm/2003">
 <defs>
  <style type="text/css">
   <![CDATA[
    .str0 {stroke:#ede4e4;stroke-width:246.94;stroke-miterlimit:22.9256}    
    .fil1 {fill:#ede4e4;fill-rule:nonzero}    
   ]]>
  </style>
 </defs>
 <g id="Слой_x0020_1">
  <metadata id="CorelCorpID_0Corel-Layer"/>  
  <path class="fil1" d="M2506.63 3548.68c-242.26,0 -467.7,-72 -655.97,-195.71l-458.11 145.6 148.96 -439.21c-142.64,-195.03 -226.97,-434.74 -226.97,-693.54 0,-38.73 2.01,-76.96 5.66,-114.74 58.33,-598.63 568.12,-1068.24 1186.47,-1068.24 625.97,0 1140.5,481.37 1188.16,1090.49 2.35,30.46 3.96,61.29 3.96,92.37 0,652.34 -534.91,1182.98 -1192.16,1182.98zm1417.12 -1218.59c-19.24,-760.47 -645.99,-1371.26 -1417.08,-1371.26 -762.27,0 -1383.75,596.77 -1416.48,1345.05 -0.92,20.63 -1.57,41.23 -1.57,62.08 0,265.7 74.31,514.27 203.41,726.39l-255.87 754.99 785.08 -249.47c203.28,111.52 436.83,175.08 685.43,175.08 783.2,0 1417.96,-629.93 1417.96,-1406.99 0,-12.06 -0.57,-23.85 -0.88,-35.87z"/>
  <path class="fil1" d="M3156.05 2649.64c-34.77,-17.27 -205.76,-100.76 -237.63,-112.09 -31.81,-11.49 -55.02,-17.28 -78.22,17.15 -23.11,34.61 -89.76,112.23 -110.09,135.17 -20.24,23.02 -40.49,25.98 -75.22,8.75 -34.74,-17.19 -146.79,-53.68 -279.51,-171.21 -103.35,-91.41 -173.21,-204.24 -193.36,-238.81 -20.29,-34.47 -2.09,-53.1 15.19,-70.29 15.76,-15.5 34.78,-40.32 52.19,-60.38 5.14,-5.89 9.01,-11.24 12.63,-16.58 8.52,-12.76 13.96,-24.73 22.16,-40.97 11.66,-22.99 5.78,-43.14 -2.88,-60.46 -8.66,-17.24 -78.27,-187.05 -107.13,-256.09 -29.03,-69.09 -57.89,-57.47 -78.27,-57.47 -20.33,0 -43.39,-2.82 -66.6,-2.82 -23.24,0 -60.85,8.66 -92.67,43.17 -31.87,34.53 -121.72,117.89 -121.72,287.57 0,40.05 7.15,79.75 17.98,117.45 35,121.8 110.7,221.7 124.02,239.24 17.24,22.86 240.42,382.55 593.62,520.71 353.51,138.03 353.51,92.03 417.28,86.23 63.65,-5.74 205.6,-83.35 234.64,-164.02 28.86,-80.49 28.86,-149.66 20.2,-164.02 -8.8,-14.33 -31.86,-22.94 -66.61,-40.23z"/>
 </g>
</svg>
